<svg width="24" height="24" viewBox="0 0 24 24" fill="none" xmlns="http://www.w3.org/2000/svg">
<rect width="24" height="24" rx="12" fill="#100E0D"/>
<g clip-path="url(#clip0_182_1397)">
<path d="M14.4903 6.0001C14.9588 5.98393 15.4256 6.06337 15.8623 6.23358C16.299 6.40379 16.6964 6.6612 17.0303 6.9901C17.3522 7.324 17.6039 7.71905 17.7705 8.15188C17.9371 8.58471 18.0153 9.04655 18.0003 9.5101V14.4901C18.0003 15.5301 17.6603 16.4251 17.0103 17.0551C16.3208 17.6917 15.4083 18.0312 14.4703 18.0001H9.53034C8.60022 18.0289 7.69634 17.6893 7.01534 17.0551C6.67776 16.717 6.41343 16.313 6.2388 15.8682C6.06418 15.4235 5.983 14.9476 6.00034 14.4701V9.5101C6.00034 7.4001 7.40034 6.0001 9.51034 6.0001H14.4903ZM14.5153 7.1151H9.53034C8.80534 7.1151 8.18034 7.3301 7.76534 7.7401C7.54358 7.97629 7.37173 8.25477 7.26005 8.55889C7.14837 8.86301 7.09915 9.18653 7.11534 9.5101V14.4701C7.11534 15.2201 7.33034 15.8201 7.76534 16.2601C8.2505 16.6892 8.88326 16.9133 9.53034 16.8851H14.4703C15.1174 16.9133 15.7502 16.6892 16.2353 16.2601C16.4683 16.0297 16.6508 15.7533 16.7713 15.4486C16.8918 15.1439 16.9476 14.8175 16.9353 14.4901V9.5101C16.9515 8.86643 16.7186 8.24136 16.2853 7.7651C16.0491 7.54335 15.7707 7.37149 15.4665 7.25981C15.1624 7.14813 14.8389 7.09891 14.5153 7.1151ZM12.0003 8.8801C13.6953 8.8801 15.1003 10.2801 15.1003 11.9801C15.1003 12.8023 14.7737 13.5908 14.1924 14.1721C13.611 14.7535 12.8225 15.0801 12.0003 15.0801C11.1782 15.0801 10.3897 14.7535 9.80831 14.1721C9.22694 13.5908 8.90034 12.8023 8.90034 11.9801C8.90034 11.1579 9.22694 10.3694 9.80831 9.78807C10.3897 9.20671 11.1782 8.8801 12.0003 8.8801ZM12.0003 9.9901C11.4747 9.99273 10.9713 10.2027 10.5996 10.5744C10.2279 10.9461 10.018 11.4495 10.0153 11.9751C10.018 12.5007 10.2279 13.0041 10.5996 13.3758C10.9713 13.7475 11.4747 13.9575 12.0003 13.9601C12.526 13.9575 13.0293 13.7475 13.401 13.3758C13.7727 13.0041 13.9827 12.5007 13.9853 11.9751C13.9827 11.4495 13.7727 10.9461 13.401 10.5744C13.0293 10.2027 12.526 9.99273 12.0003 9.9901ZM15.2203 8.1051C15.406 8.1051 15.584 8.17885 15.7153 8.31013C15.8466 8.4414 15.9203 8.61945 15.9203 8.8051C15.9203 8.99075 15.8466 9.1688 15.7153 9.30008C15.584 9.43135 15.406 9.5051 15.2203 9.5051C15.0347 9.5051 14.8566 9.43135 14.7254 9.30008C14.5941 9.1688 14.5203 8.99075 14.5203 8.8051C14.5203 8.61945 14.5941 8.4414 14.7254 8.31013C14.8566 8.17885 15.0347 8.1051 15.2203 8.1051Z" fill="white"/>
</g>
<defs>
<clipPath id="clip0_182_1397">
<rect width="12" height="12" fill="white" transform="translate(6 6)"/>
</clipPath>
</defs>
</svg>
