<svg width="24" height="24" viewBox="0 0 24 24" fill="none" xmlns="http://www.w3.org/2000/svg">
<rect width="24" height="24" rx="12" fill="#100E0D"/>
<g clip-path="url(#clip0_182_1409)">
<path d="M16 6C16.5304 6 17.0391 6.21071 17.4142 6.58579C17.7893 6.96086 18 7.46957 18 8V16C18 16.5304 17.7893 17.0391 17.4142 17.4142C17.0391 17.7893 16.5304 18 16 18H8C7.46957 18 6.96086 17.7893 6.58579 17.4142C6.21071 17.0391 6 16.5304 6 16V8C6 7.46957 6.21071 6.96086 6.58579 6.58579C6.96086 6.21071 7.46957 6 8 6H16ZM10.475 10.7H9.08V14.75H10.48V10.7H10.475ZM13.895 10.605C13.235 10.605 12.895 10.92 12.705 11.185L12.64 11.275V10.7H11.245L11.25 10.945V14.75H12.64V12.49C12.6317 12.3853 12.6452 12.28 12.6797 12.1807C12.7141 12.0815 12.7688 11.9904 12.8402 11.9134C12.9116 11.8363 12.9983 11.7749 13.0946 11.733C13.191 11.6911 13.2949 11.6697 13.4 11.67C13.88 11.67 14.085 12 14.105 12.5V14.75H15.5V12.43C15.5 11.185 14.815 10.605 13.9 10.605H13.895ZM9.79 8.75C9.31 8.75 9 9.05 9 9.45C9 9.815 9.27 10.11 9.69 10.15H9.78C10.265 10.15 10.565 9.84 10.565 9.45C10.56 9.05 10.265 8.75 9.79 8.75Z" fill="white"/>
</g>
<defs>
<clipPath id="clip0_182_1409">
<rect width="12" height="12" fill="white" transform="translate(6 6)"/>
</clipPath>
</defs>
</svg>
