<svg width="24" height="24" viewBox="0 0 24 24" fill="none" xmlns="http://www.w3.org/2000/svg">
<rect width="24" height="24" rx="12" fill="#100E0D"/>
<g clip-path="url(#clip0_182_1403)">
<path d="M12.075 17.7501H11.925C11.215 17.7501 10.755 17.4201 10.315 17.1001C10.015 16.8801 9.725 16.6751 9.385 16.6151C9.22306 16.5882 9.05916 16.5748 8.895 16.5751C8.61 16.5751 8.385 16.6251 8.22 16.6551C8.12 16.6751 8.03 16.6901 7.97 16.6901C7.895 16.6901 7.82 16.6751 7.79 16.5651C7.765 16.4651 7.74 16.3701 7.725 16.2801C7.675 16.0451 7.635 15.9001 7.54 15.8801C6.41 15.7051 6.09 15.4601 6.02 15.2901C6.00904 15.2665 6.00227 15.2411 6 15.2151C6 15.1501 6.04 15.0901 6.105 15.0801C7.84 14.7901 8.615 12.9801 8.65 12.9051V12.9001C8.76 12.6801 8.78 12.4901 8.715 12.3301C8.595 12.0451 8.205 11.9201 7.95 11.8351L7.78 11.7801C7.27 11.5701 7.23 11.3601 7.245 11.2501C7.28 11.0651 7.52 10.9401 7.715 10.9401C7.77 10.9401 7.815 10.9501 7.855 10.9651C8.09 11.0751 8.295 11.1351 8.475 11.1351C8.725 11.1351 8.83 11.0251 8.845 11.0151L8.82 10.6401C8.77 9.80011 8.705 8.76511 8.965 8.17011C9.20441 7.59718 9.60908 7.10856 10.1274 6.7666C10.6457 6.42463 11.2541 6.24482 11.875 6.25011H12.12C12.605 6.25011 14.255 6.39011 15.035 8.17011C15.295 8.76011 15.23 9.80011 15.18 10.6401V10.6751L15.155 11.0151C15.17 11.0251 15.27 11.1251 15.495 11.1301C15.665 11.1301 15.86 11.0701 16.075 10.9651C16.1318 10.9406 16.1932 10.9287 16.255 10.9301C16.33 10.9301 16.405 10.9451 16.465 10.9701C16.64 11.0351 16.755 11.1601 16.76 11.2901C16.76 11.4151 16.67 11.5951 16.22 11.7801L16.05 11.8351C15.795 11.9201 15.405 12.0451 15.285 12.3351C15.22 12.4851 15.24 12.6801 15.35 12.9001C15.385 12.9801 16.16 14.7901 17.895 15.0801C17.96 15.0901 18.005 15.1501 18 15.2151C18 15.2401 17.99 15.2651 17.98 15.2901C17.91 15.4601 17.59 15.7051 16.46 15.8801C16.37 15.8951 16.33 16.0201 16.275 16.2801C16.2567 16.3742 16.235 16.4676 16.21 16.5601C16.185 16.6401 16.135 16.6801 16.05 16.6801H16.035C15.975 16.6801 15.885 16.6701 15.785 16.6501C15.4002 16.5688 15.004 16.557 14.615 16.6151C14.275 16.6751 13.99 16.8801 13.685 17.1001C13.245 17.4201 12.785 17.7501 12.075 17.7501Z" fill="white"/>
</g>
<defs>
<clipPath id="clip0_182_1403">
<rect width="12" height="12" fill="white" transform="translate(6 6)"/>
</clipPath>
</defs>
</svg>
