<svg width="24" height="24" viewBox="0 0 24 24" fill="none" xmlns="http://www.w3.org/2000/svg">
<rect width="24" height="24" rx="12" fill="#100E0D"/>
<g clip-path="url(#clip0_182_1400)">
<path d="M17.25 10.921C16.2179 10.9235 15.2111 10.6016 14.3718 10.0009V14.1906C14.3715 14.9667 14.1343 15.7241 13.6919 16.3617C13.2495 16.9992 12.623 17.4865 11.8962 17.7584C11.1694 18.0303 10.3768 18.0738 9.62457 17.8832C8.87233 17.6925 8.19623 17.2768 7.68667 16.6915C7.1771 16.1062 6.85837 15.3794 6.77309 14.6081C6.6878 13.8368 6.84004 13.0578 7.20942 12.3753C7.57881 11.6929 8.14775 11.1395 8.84017 10.7891C9.53259 10.4387 10.3155 10.3081 11.0842 10.4146V12.5219C10.7324 12.4113 10.3547 12.4146 10.005 12.5315C9.65521 12.6483 9.35133 12.8727 9.1367 13.1725C8.92208 13.4723 8.80768 13.8323 8.80985 14.201C8.81202 14.5697 8.93065 14.9284 9.1488 15.2256C9.36694 15.5229 9.67344 15.7436 10.0245 15.8563C10.3756 15.9691 10.7534 15.968 11.1038 15.8532C11.4542 15.7384 11.7594 15.5158 11.9758 15.2172C12.1922 14.9187 12.3087 14.5594 12.3087 14.1906V6H14.3718C14.3703 6.17422 14.3849 6.3482 14.4154 6.51974C14.4871 6.90268 14.6361 7.26698 14.8534 7.59034C15.0708 7.9137 15.3518 8.18933 15.6793 8.40037C16.1452 8.70844 16.6915 8.87264 17.25 8.87252V10.921Z" fill="white"/>
</g>
<defs>
<clipPath id="clip0_182_1400">
<rect width="12" height="12" fill="white" transform="translate(6 6)"/>
</clipPath>
</defs>
</svg>
