<svg width="24" height="24" viewBox="0 0 24 24" fill="none" xmlns="http://www.w3.org/2000/svg">
<rect width="24" height="24" rx="12" fill="#100E0D"/>
<path d="M16.0783 16.3055C16.046 16.3643 15.9985 16.4134 15.9408 16.4476C15.8831 16.4818 15.8173 16.4999 15.7502 16.5H13.5002C13.4371 16.5 13.375 16.484 13.3197 16.4536C13.2644 16.4232 13.2176 16.3794 13.1838 16.3261L11.2858 13.3434L8.52768 16.3772C8.46045 16.4494 8.36745 16.4922 8.26886 16.4963C8.17027 16.5005 8.07403 16.4656 8.001 16.3992C7.92797 16.3328 7.88405 16.2404 7.87875 16.1418C7.87345 16.0433 7.9072 15.9466 7.97268 15.8728L10.8682 12.6853L7.93378 8.07656C7.89764 8.01986 7.87741 7.95449 7.8752 7.88729C7.873 7.82009 7.8889 7.75353 7.92125 7.69459C7.9536 7.63564 8.0012 7.58648 8.05907 7.55225C8.11694 7.51801 8.18295 7.49997 8.25018 7.5H10.5002C10.5633 7.50002 10.6254 7.51597 10.6807 7.54637C10.736 7.57677 10.7827 7.62063 10.8166 7.67391L12.7146 10.6566L15.4727 7.62281C15.5399 7.55059 15.6329 7.50777 15.7315 7.50365C15.8301 7.49954 15.9263 7.53444 15.9994 7.60081C16.0724 7.66717 16.1163 7.75965 16.1216 7.85818C16.1269 7.95672 16.0932 8.05337 16.0277 8.12719L13.1322 11.3123L16.0666 15.9239C16.1025 15.9806 16.1226 16.046 16.1246 16.1131C16.1267 16.1802 16.1107 16.2466 16.0783 16.3055Z" fill="white"/>
</svg>
