<svg width="24" height="24" viewBox="0 0 24 24" fill="none" xmlns="http://www.w3.org/2000/svg">
<rect width="24" height="24" rx="12" fill="#100E0D"/>
<path d="M16.9842 9.25875C16.9401 9.08595 16.8554 8.92612 16.7373 8.79245C16.6192 8.65879 16.471 8.55512 16.305 8.49C14.6981 7.86938 12.1406 7.875 12 7.875C11.8594 7.875 9.30187 7.86938 7.695 8.49C7.52895 8.55512 7.38077 8.65879 7.26267 8.79245C7.14457 8.92612 7.05995 9.08595 7.01578 9.25875C6.89438 9.72656 6.75 10.5816 6.75 12C6.75 13.4184 6.89438 14.2734 7.01578 14.7413C7.05988 14.9141 7.14448 15.0741 7.26258 15.2078C7.38068 15.3416 7.5289 15.4453 7.695 15.5105C9.23438 16.1044 11.6437 16.125 11.9691 16.125H12.0309C12.3563 16.125 14.767 16.1044 16.305 15.5105C16.4711 15.4453 16.6193 15.3416 16.7374 15.2078C16.8555 15.0741 16.9401 14.9141 16.9842 14.7413C17.1056 14.2725 17.25 13.4184 17.25 12C17.25 10.5816 17.1056 9.72656 16.9842 9.25875ZM13.5277 12.3056L11.6527 13.6181C11.5966 13.6574 11.5308 13.6806 11.4625 13.6852C11.3941 13.6897 11.3259 13.6755 11.265 13.644C11.2042 13.6125 11.1532 13.565 11.1175 13.5065C11.0818 13.4481 11.0628 13.381 11.0625 13.3125V10.6875C11.0625 10.6189 11.0814 10.5516 11.117 10.493C11.1526 10.4343 11.2036 10.3866 11.2644 10.3549C11.3253 10.3233 11.3937 10.3089 11.4621 10.3134C11.5306 10.3179 11.5965 10.3411 11.6527 10.3805L13.5277 11.693C13.577 11.7276 13.6172 11.7735 13.645 11.827C13.6728 11.8804 13.6873 11.9398 13.6873 12C13.6873 12.0602 13.6728 12.1196 13.645 12.173C13.6172 12.2265 13.577 12.2724 13.5277 12.307V12.3056Z" fill="white"/>
</svg>
