<svg width="48" height="48" viewBox="0 0 48 48" fill="none" xmlns="http://www.w3.org/2000/svg">
<g clip-path="url(#clip0_182_1374)">
<path d="M0 47.998H47.9988V-0.000751495H0V47.998Z" fill="#58EC94"/>
<path d="M14.5967 23.0419C14.5967 24.2879 15.2507 25.1601 16.3098 25.1601C17.3533 25.1601 18.0074 24.2879 18.0074 23.0419C18.0074 21.796 17.3533 20.955 16.3098 20.955C15.2507 20.955 14.5967 21.796 14.5967 23.0419ZM19.3779 20.0361C20.1566 20.8303 20.546 21.8272 20.546 23.0419C20.546 24.2724 20.1566 25.2691 19.3779 26.0635C18.5837 26.8578 17.5713 27.2471 16.3097 27.2471C15.0482 27.2471 14.0201 26.8578 13.2415 26.0635C12.4473 25.2691 12.0579 24.2724 12.0579 23.0419C12.0579 21.8272 12.4473 20.8303 13.2415 20.0361C14.0201 19.2572 15.0482 18.8679 16.3097 18.8679C17.5713 18.8679 18.5837 19.2572 19.3779 20.0361Z" fill="#262626"/>
<path d="M35.0509 25.1072C35.5536 25.1072 35.9622 24.9187 36.2922 24.5572C36.6222 24.1958 36.7793 23.693 36.7793 23.0645C36.7793 21.7445 36.0566 20.9274 35.0509 20.9274C34.0295 20.9274 33.3224 21.6974 33.3224 23.0016V23.0959C33.3224 23.7087 33.4795 24.1958 33.8095 24.5572C34.1396 24.9187 34.548 25.1072 35.0509 25.1072ZM30.6982 30.1826V18.9945H33.3853V20.1101H33.4009C33.778 19.3088 34.768 18.7902 35.7893 18.7902C36.9051 18.7902 37.8006 19.183 38.4449 19.953C39.0893 20.7387 39.4192 21.7757 39.4192 23.0643C39.4192 24.3056 39.0893 25.3112 38.4449 26.0812C37.8006 26.8511 36.9051 27.244 35.7893 27.244C34.7366 27.244 33.7623 26.7569 33.4009 26.0026H33.3853V30.1824L30.6982 30.1826Z" fill="#262626"/>
<path d="M8.44165 26.9855V16.0395H11.1297V27.0117L8.44165 26.9855Z" fill="#262626"/>
<path d="M28.9149 21.3382C28.4801 20.924 27.873 20.6959 27.2056 20.6959C26.6926 20.6959 26.1726 20.8356 25.7413 21.0949C26.5474 21.2399 27.0397 21.9826 27.0397 23.0305C27.0397 24.2018 26.4249 25.0217 25.4439 25.0217C24.4483 25.0217 23.8334 24.2018 23.8334 23.0305C23.8334 22.7249 23.8756 22.4455 23.9552 22.199C24.2809 20.7272 25.7647 19.8667 27.2056 19.8667C27.7137 19.8667 28.223 19.9728 28.6849 20.1917C28.6323 20.1317 28.5783 20.0725 28.5217 20.0147C27.7251 19.2336 26.7097 18.8431 25.4444 18.8431C24.1791 18.8431 23.1481 19.2336 22.3671 20.0147C21.5705 20.8113 21.1799 21.8111 21.1799 23.0295C21.1799 24.2636 21.5705 25.2633 22.3671 26.06C23.1481 26.8567 24.1791 27.2471 25.4444 27.2471C26.7097 27.2471 27.7251 26.8567 28.5217 26.06C29.2516 25.3154 29.6379 24.5518 29.688 23.2685C29.6503 22.4508 29.3852 21.7861 28.9149 21.3382Z" fill="#262626"/>
<path d="M27.8258 35.137C27.4113 35.137 27.0828 35.4317 27.0437 35.8584H28.6078C28.6 35.455 28.2715 35.137 27.8258 35.137Z" fill="#262626"/>
<path d="M33.4015 35.641C32.7681 35.5712 32.3302 35.641 32.0956 35.8427C31.8532 36.0521 31.7358 36.409 31.7358 36.9287V38.3172H30.3985V34.3456H31.7358V35.4161C31.9626 34.6094 32.4944 34.2603 33.4015 34.2603V35.641ZM29.883 36.6417H27.0051V36.6649C27.0442 37.1536 27.404 37.4562 27.8419 37.4562C28.2329 37.4562 28.4832 37.2932 28.5926 36.9675H29.8674C29.6406 37.9294 28.8742 38.418 27.8419 38.418C27.2084 38.418 26.6923 38.2241 26.2935 37.844C25.8946 37.4639 25.6991 36.9597 25.6991 36.3314C25.6991 35.7263 25.9025 35.2299 26.3013 34.8343C26.7001 34.4387 27.2084 34.2448 27.8106 34.2448C28.4362 34.2448 28.9367 34.4387 29.3199 34.8265C29.6953 35.2221 29.883 35.7496 29.883 36.4167V36.6417ZM25.1915 38.3172H23.8543V37.7664H23.8464C23.6588 38.162 23.127 38.418 22.6186 38.418C22.0634 38.418 21.6177 38.2241 21.297 37.8362C20.9764 37.4562 20.8122 36.9442 20.8122 36.3081C20.8122 35.6953 20.9764 35.1911 21.297 34.811C21.6177 34.431 22.0634 34.2448 22.6186 34.2448C23.1426 34.2448 23.6275 34.4852 23.8152 34.8576H23.823V32.8873H25.1915V38.3172ZM20.2219 33.8106H18.8846V32.8875H20.2219V33.8106ZM20.2219 38.3172H18.8846V34.3456H20.2219V38.3172ZM16.4822 38.418C15.317 38.418 14.5819 37.9061 14.5193 36.8589H15.708C15.747 37.2855 16.0052 37.5027 16.4665 37.5027C16.834 37.5027 17.0218 37.3863 17.0218 37.1459C17.0218 37.0295 16.9671 36.9442 16.8654 36.8899C16.7637 36.8433 16.5213 36.7736 16.1459 36.6882C16.1381 36.6882 15.747 36.5951 15.7236 36.5874C15.6923 36.5796 15.622 36.5641 15.5203 36.5331C15.3091 36.4788 15.2935 36.4555 15.1293 36.3779C14.9651 36.3004 14.9416 36.2538 14.8243 36.1374C14.7696 36.0832 14.7304 36.0211 14.707 35.9591C14.6679 35.8427 14.621 35.6798 14.621 35.5014C14.621 34.6947 15.2622 34.2448 16.3962 34.2448C17.4675 34.2448 18.1479 34.7257 18.2339 35.6953H17.0452C16.9904 35.2842 16.8106 35.1136 16.3805 35.1136C16.0677 35.1136 15.8487 35.2454 15.8487 35.4548C15.8487 35.579 15.8957 35.6643 15.9973 35.7108C16.099 35.7574 16.318 35.8117 16.6542 35.8815C17.186 35.9978 17.5301 36.0987 17.6943 36.1762C18.0853 36.3624 18.2808 36.6727 18.2808 37.0993C18.2808 37.9294 17.6161 38.418 16.4822 38.418ZM8.44238 39.6592H39.474V31.7172H8.44238V39.6592Z" fill="#262626"/>
<path d="M22.9935 35.2999C22.7433 35.2999 22.5399 35.393 22.3757 35.5714C22.2115 35.7498 22.1255 35.998 22.1255 36.3083C22.1255 36.9599 22.493 37.3633 22.9935 37.3633C23.5018 37.3633 23.8538 36.9832 23.8538 36.3394V36.2928C23.8459 35.9903 23.7677 35.7421 23.6113 35.5636C23.4471 35.3852 23.2438 35.2999 22.9935 35.2999Z" fill="#262626"/>
</g>
<defs>
<clipPath id="clip0_182_1374">
<rect width="48" height="48" fill="white"/>
</clipPath>
</defs>
</svg>
