<svg width="88" height="88" viewBox="0 0 88 88" fill="none" xmlns="http://www.w3.org/2000/svg">
<g clip-path="url(#clip0_182_1464)">
<path d="M0 87.9961H87.9978V-0.00170135H0V87.9961Z" fill="#58EC94"/>
<path d="M26.7607 42.2442C26.7607 44.5285 27.9597 46.1275 29.9013 46.1275C31.8146 46.1275 33.0136 44.5285 33.0136 42.2442C33.0136 39.9599 31.8146 38.4181 29.9013 38.4181C27.9597 38.4181 26.7607 39.9599 26.7607 42.2442ZM35.5263 36.7334C36.9539 38.1894 37.6678 40.0171 37.6678 42.2442C37.6678 44.5 36.9539 46.3274 35.5263 47.7837C34.0702 49.24 32.2141 49.9536 29.9012 49.9536C27.5885 49.9536 25.7037 49.24 24.2762 47.7837C22.8201 46.3274 22.1062 44.5 22.1062 42.2442C22.1062 40.0171 22.8201 38.1894 24.2762 36.7334C25.7037 35.3056 27.5885 34.5919 29.9012 34.5919C32.2141 34.5919 34.0702 35.3056 35.5263 36.7334Z" fill="#262626"/>
<path d="M64.2599 46.0295C65.1816 46.0295 65.9306 45.6839 66.5357 45.0212C67.1406 44.3586 67.4287 43.4368 67.4287 42.2846C67.4287 39.8646 66.1036 38.3666 64.2599 38.3666C62.3873 38.3666 61.0909 39.7782 61.0909 42.1693V42.3421C61.0909 43.4656 61.379 44.3586 61.9841 45.0212C62.5891 45.6839 63.3379 46.0295 64.2599 46.0295ZM56.28 55.3345V34.8228H61.2063V36.8682H61.235C61.9263 35.3991 63.7413 34.4484 65.6137 34.4484C67.6592 34.4484 69.3011 35.1686 70.4823 36.5801C71.6636 38.0206 72.2684 39.9218 72.2684 42.2842C72.2684 44.5599 71.6636 46.4036 70.4823 47.8152C69.3011 49.2268 67.6592 49.947 65.6137 49.947C63.6837 49.947 61.8975 49.054 61.235 47.6712H61.2063V55.3341L56.28 55.3345Z" fill="#262626"/>
<path d="M15.4763 49.4739V29.4063H20.4044V49.522L15.4763 49.4739Z" fill="#262626"/>
<path d="M53.0107 39.1212C52.2134 38.3619 51.1005 37.9437 49.8769 37.9437C48.9364 37.9437 47.983 38.1997 47.1923 38.6751C48.6702 38.941 49.5728 40.3026 49.5728 42.2237C49.5728 44.3711 48.4456 45.8743 46.6471 45.8743C44.8218 45.8743 43.6946 44.3711 43.6946 42.2237C43.6946 41.6634 43.772 41.1512 43.9178 40.6993C44.5149 38.001 47.2352 36.4235 49.8769 36.4235C50.8084 36.4235 51.742 36.618 52.5889 37.0192C52.4926 36.9093 52.3936 36.8008 52.2897 36.6948C50.8293 35.2627 48.9678 34.5469 46.648 34.5469C44.3284 34.5469 42.4381 35.2627 41.0062 36.6948C39.5459 38.1551 38.8298 39.9882 38.8298 42.2219C38.8298 44.4844 39.5459 46.3172 41.0062 47.7778C42.4381 49.2384 44.3284 49.9541 46.648 49.9541C48.9678 49.9541 50.8293 49.2384 52.2897 47.7778C53.6278 46.4127 54.3362 45.0128 54.4279 42.6601C54.3588 41.1609 53.8729 39.9423 53.0107 39.1212Z" fill="#262626"/>
<path d="M51.0139 64.4181C50.254 64.4181 49.6518 64.9585 49.5801 65.7407H52.4477C52.4332 65.0012 51.8311 64.4181 51.0139 64.4181Z" fill="#262626"/>
<path d="M61.2357 65.3419C60.0744 65.2139 59.2716 65.3419 58.8415 65.7116C58.3971 66.0955 58.182 66.7497 58.182 67.7026V70.2481H55.7303V62.967H58.182V64.9295C58.5978 63.4505 59.5727 62.8105 61.2357 62.8105V65.3419ZM54.785 67.1764H49.5089V67.2191C49.5806 68.115 50.2402 68.6696 51.0431 68.6696C51.7599 68.6696 52.2187 68.3709 52.4194 67.7737H54.7564C54.3406 69.5372 52.9356 70.433 51.0431 70.433C49.8817 70.433 48.9355 70.0775 48.2043 69.3807C47.473 68.6838 47.1146 67.7594 47.1146 66.6076C47.1146 65.4983 47.4875 64.5882 48.2186 63.8629C48.9498 63.1376 49.8817 62.7821 50.9857 62.7821C52.1326 62.7821 53.0502 63.1376 53.7528 63.8487C54.4409 64.5739 54.785 65.541 54.785 66.764V67.1764ZM46.184 70.2481H43.7324V69.2384H43.7181C43.374 69.9637 42.3991 70.433 41.4671 70.433C40.4492 70.433 39.632 70.0775 39.0442 69.3665C38.4564 68.6696 38.1553 67.731 38.1553 66.5649C38.1553 65.4414 38.4564 64.517 39.0442 63.8202C39.632 63.1234 40.4492 62.7821 41.4671 62.7821C42.4278 62.7821 43.3167 63.2229 43.6607 63.9055H43.6751V60.2934H46.184V70.2481ZM37.073 61.9861H34.6213V60.2938H37.073V61.9861ZM37.073 70.2481H34.6213V62.9669H37.073V70.2481ZM30.2169 70.433C28.0807 70.433 26.733 69.4945 26.6183 67.5746H28.7976C28.8692 68.3568 29.3424 68.755 30.1882 68.755C30.862 68.755 31.2062 68.5416 31.2062 68.1008C31.2062 67.8874 31.1059 67.731 30.9194 67.6315C30.733 67.5461 30.2886 67.4182 29.6004 67.2618C29.5861 67.2618 28.8692 67.0911 28.8262 67.0769C28.7689 67.0626 28.6399 67.0342 28.4535 66.9773C28.0664 66.8777 28.0377 66.8351 27.7367 66.6929C27.4355 66.5507 27.3925 66.4653 27.1774 66.252C27.0771 66.1525 27.0054 66.0387 26.9624 65.9249C26.8907 65.7116 26.8047 65.413 26.8047 65.0859C26.8047 63.6069 27.9803 62.7821 30.0593 62.7821C32.0234 62.7821 33.2707 63.6638 33.4284 65.4414H31.2492C31.1487 64.6877 30.8191 64.3749 30.0305 64.3749C29.457 64.3749 29.0556 64.6166 29.0556 65.0005C29.0556 65.2281 29.1416 65.3846 29.328 65.4699C29.5144 65.5552 29.9159 65.6547 30.5323 65.7827C31.5072 65.9961 32.138 66.1809 32.4392 66.3231C33.1561 66.6644 33.5145 67.2332 33.5145 68.0154C33.5145 69.5372 32.2958 70.433 30.2169 70.433ZM15.4773 72.7085H72.3687V58.1481H15.4773V72.7085Z" fill="#262626"/>
<path d="M42.1543 64.7162C41.6956 64.7162 41.3228 64.8868 41.0217 65.2139C40.7207 65.541 40.563 65.9961 40.563 66.5649C40.563 67.7594 41.2367 68.499 42.1543 68.499C43.0862 68.499 43.7315 67.8021 43.7315 66.6218V66.5364C43.7171 65.9819 43.5737 65.5268 43.2869 65.1997C42.9859 64.8726 42.6132 64.7162 42.1543 64.7162Z" fill="#262626"/>
</g>
<defs>
<clipPath id="clip0_182_1464">
<rect width="88" height="88" fill="white"/>
</clipPath>
</defs>
</svg>
