<svg width="24" height="25" viewBox="0 0 24 25" fill="none" xmlns="http://www.w3.org/2000/svg">
<g clip-path="url(#clip0_452_2009)">
<path d="M24 12.57C24 5.91 18.63 0.5 12 0.5C5.37 0.5 0 5.9 0 12.57C0 18.6 4.39 23.6 10.13 24.5V16.06H7.08V12.57H10.12V9.91C10.12 6.89 11.92 5.21 14.66 5.21C15.97 5.21 17.34 5.45 17.34 5.45V8.42H15.84C14.34 8.42 13.88 9.35 13.88 10.31V12.57H17.2L16.67 16.07H13.87V24.5C19.62 23.6 24 18.6 24 12.57Z" fill="#FCFBFB"/>
</g>
<defs>
<clipPath id="clip0_452_2009">
<rect width="24" height="24" fill="white" transform="translate(0 0.5)"/>
</clipPath>
</defs>
</svg>
