<svg width="24" height="25" viewBox="0 0 24 25" fill="none" xmlns="http://www.w3.org/2000/svg">
<g clip-path="url(#clip0_452_2011)">
<path d="M16.9797 0.499959C17.9165 0.467612 18.8502 0.626498 19.7236 0.966919C20.597 1.30734 21.3918 1.82216 22.0597 2.47996C22.7035 3.14776 23.2068 3.93785 23.5401 4.80351C23.8733 5.66918 24.0296 6.59286 23.9997 7.51996V17.48C23.9997 19.56 23.3197 21.35 22.0197 22.61C20.6406 23.8832 18.8156 24.5622 16.9397 24.5H7.0597C5.19946 24.5576 3.39171 23.8783 2.0297 22.61C1.35455 21.9337 0.82588 21.1257 0.47663 20.2362C0.127381 19.3468 -0.0349675 18.3949 -0.000301 17.44V7.51996C-0.000301 3.29996 2.7997 0.499959 7.0197 0.499959H16.9797ZM17.0297 2.72996H7.0597C5.6097 2.72996 4.3597 3.15996 3.5297 3.97996C3.08619 4.45235 2.74249 5.0093 2.51912 5.61754C2.29576 6.22578 2.19732 6.87281 2.2297 7.51996V17.44C2.2297 18.94 2.6597 20.14 3.5297 21.02C4.50002 21.8782 5.76553 22.3263 7.0597 22.27H16.9397C18.2339 22.3263 19.4994 21.8782 20.4697 21.02C20.9355 20.5591 21.3005 20.0064 21.5415 19.397C21.7825 18.7876 21.8943 18.1348 21.8697 17.48V7.51996C21.902 6.23263 21.4363 4.98248 20.5697 4.02996C20.0973 3.58645 19.5404 3.24274 18.9321 3.01938C18.3239 2.79602 17.6768 2.69758 17.0297 2.72996ZM11.9997 6.25996C15.3897 6.25996 18.1997 9.05996 18.1997 12.46C18.1997 14.1043 17.5465 15.6813 16.3838 16.844C15.221 18.0067 13.644 18.66 11.9997 18.66C10.3554 18.66 8.77836 18.0067 7.61564 16.844C6.45291 15.6813 5.7997 14.1043 5.7997 12.46C5.7997 10.8156 6.45291 9.23862 7.61564 8.0759C8.77836 6.91317 10.3554 6.25996 11.9997 6.25996ZM11.9997 8.47996C10.9484 8.48522 9.94168 8.90517 9.19829 9.64855C8.45491 10.3919 8.03496 11.3987 8.0297 12.45C8.03496 13.5012 8.45491 14.508 9.19829 15.2514C9.94168 15.9947 10.9484 16.4147 11.9997 16.42C13.051 16.4147 14.0577 15.9947 14.8011 15.2514C15.5445 14.508 15.9644 13.5012 15.9697 12.45C15.9644 11.3987 15.5445 10.3919 14.8011 9.64855C14.0577 8.90517 13.051 8.48522 11.9997 8.47996ZM18.4397 4.70996C18.811 4.70996 19.1671 4.85746 19.4296 5.12001C19.6922 5.38256 19.8397 5.73866 19.8397 6.10996C19.8397 6.48126 19.6922 6.83736 19.4296 7.09991C19.1671 7.36246 18.811 7.50996 18.4397 7.50996C18.0684 7.50996 17.7123 7.36246 17.4497 7.09991C17.1872 6.83736 17.0397 6.48126 17.0397 6.10996C17.0397 5.73866 17.1872 5.38256 17.4497 5.12001C17.7123 4.85746 18.0684 4.70996 18.4397 4.70996Z" fill="white"/>
</g>
<defs>
<clipPath id="clip0_452_2011">
<rect width="24" height="24" fill="white" transform="translate(0 0.5)"/>
</clipPath>
</defs>
</svg>
