<svg width="24" height="25" viewBox="0 0 24 25" fill="none" xmlns="http://www.w3.org/2000/svg">
<g clip-path="url(#clip0_452_2019)">
<path d="M20 0.5C21.0609 0.5 22.0783 0.921427 22.8284 1.67157C23.5786 2.42172 24 3.43913 24 4.5V20.5C24 21.5609 23.5786 22.5783 22.8284 23.3284C22.0783 24.0786 21.0609 24.5 20 24.5H4C2.93913 24.5 1.92172 24.0786 1.17157 23.3284C0.421427 22.5783 0 21.5609 0 20.5V4.5C0 3.43913 0.421427 2.42172 1.17157 1.67157C1.92172 0.921427 2.93913 0.5 4 0.5L20 0.5ZM8.95 9.9H6.16V18H8.96V9.9H8.95ZM15.79 9.71C14.47 9.71 13.79 10.34 13.41 10.87L13.28 11.05V9.9H10.49L10.5 10.39V18H13.28V13.48C13.2634 13.2705 13.2904 13.0599 13.3594 12.8614C13.4283 12.6629 13.5376 12.4809 13.6804 12.3268C13.8233 12.1726 13.9965 12.0498 14.1892 11.966C14.3819 11.8823 14.5899 11.8393 14.8 11.84C15.76 11.84 16.17 12.5 16.21 13.5V18H19V13.36C19 10.87 17.63 9.71 15.8 9.71H15.79ZM7.58 6C6.62 6 6 6.6 6 7.4C6 8.13 6.54 8.72 7.38 8.8H7.56C8.53 8.8 9.13 8.18 9.13 7.4C9.12 6.6 8.53 6 7.58 6Z" fill="white"/>
</g>
<defs>
<clipPath id="clip0_452_2019">
<rect width="24" height="24" fill="white" transform="translate(0 0.5)"/>
</clipPath>
</defs>
</svg>
