<svg width="24" height="25" viewBox="0 0 24 25" fill="none" xmlns="http://www.w3.org/2000/svg">
<g clip-path="url(#clip0_452_2015)">
<path d="M12.15 24H11.85C10.43 24 9.51 23.34 8.63 22.7C8.03 22.26 7.45 21.85 6.77 21.73C6.44613 21.6761 6.11832 21.6493 5.79 21.65C5.22 21.65 4.77 21.75 4.44 21.81C4.24 21.85 4.06 21.88 3.94 21.88C3.79 21.88 3.64 21.85 3.58 21.63C3.53 21.43 3.48 21.24 3.45 21.06C3.35 20.59 3.27 20.3 3.08 20.26C0.82 19.91 0.18 19.42 0.04 19.08C0.0180777 19.0327 0.00454299 18.9819 0 18.93C0 18.8 0.08 18.68 0.21 18.66C3.68 18.08 5.23 14.46 5.3 14.31V14.3C5.52 13.86 5.56 13.48 5.43 13.16C5.19 12.59 4.41 12.34 3.9 12.17L3.56 12.06C2.54 11.64 2.46 11.22 2.49 11C2.56 10.63 3.04 10.38 3.43 10.38C3.54 10.38 3.63 10.4 3.71 10.43C4.18 10.65 4.59 10.77 4.95 10.77C5.45 10.77 5.66 10.55 5.69 10.53L5.64 9.77998C5.54 8.09998 5.41 6.02998 5.93 4.83998C6.40882 3.69412 7.21816 2.71688 8.25474 2.03295C9.29133 1.34902 10.5082 0.989403 11.75 0.999983H12.24C13.21 0.999983 16.51 1.27998 18.07 4.83998C18.59 6.01998 18.46 8.09998 18.36 9.77998V9.84998L18.31 10.53C18.34 10.55 18.54 10.75 18.99 10.76C19.33 10.76 19.72 10.64 20.15 10.43C20.2636 10.381 20.3864 10.3572 20.51 10.36C20.66 10.36 20.81 10.39 20.93 10.44C21.28 10.57 21.51 10.82 21.52 11.08C21.52 11.33 21.34 11.69 20.44 12.06L20.1 12.17C19.59 12.34 18.81 12.59 18.57 13.17C18.44 13.47 18.48 13.86 18.7 14.3C18.77 14.46 20.32 18.08 23.79 18.66C23.92 18.68 24.01 18.8 24 18.93C24 18.98 23.98 19.03 23.96 19.08C23.82 19.42 23.18 19.91 20.92 20.26C20.74 20.29 20.66 20.54 20.55 21.06C20.5133 21.2481 20.4699 21.4349 20.42 21.62C20.37 21.78 20.27 21.86 20.1 21.86H20.07C19.95 21.86 19.77 21.84 19.57 21.8C18.8004 21.6374 18.0079 21.6137 17.23 21.73C16.55 21.85 15.98 22.26 15.37 22.7C14.49 23.34 13.57 24 12.15 24Z" fill="white"/>
</g>
<defs>
<clipPath id="clip0_452_2015">
<rect width="24" height="24" fill="white" transform="translate(0 0.5)"/>
</clipPath>
</defs>
</svg>
