<svg width="24" height="25" viewBox="0 0 24 25" fill="none" xmlns="http://www.w3.org/2000/svg">
<g clip-path="url(#clip0_452_2013)">
<path d="M22.5 10.342C20.4357 10.347 18.4221 9.70321 16.7435 8.50171V16.8813C16.7429 18.4333 16.2685 19.9482 15.3838 21.2233C14.499 22.4984 13.246 23.473 11.7923 24.0168C10.3387 24.5606 8.75362 24.6477 7.24914 24.2664C5.74466 23.8851 4.39245 23.0536 3.37333 21.883C2.3542 20.7125 1.71674 19.2587 1.54617 17.7161C1.3756 16.1735 1.68007 14.6156 2.41884 13.2507C3.15762 11.8858 4.2955 10.779 5.68034 10.0782C7.06517 9.37746 8.63095 9.11616 10.1683 9.32927V13.5439C9.4648 13.3227 8.70938 13.3293 8.0099 13.563C7.31041 13.7966 6.70265 14.2453 6.2734 14.845C5.84415 15.4446 5.61536 16.1646 5.6197 16.902C5.62404 17.6395 5.8613 18.3567 6.29759 18.9512C6.73387 19.5458 7.34688 19.9873 8.04906 20.2127C8.75125 20.4381 9.5067 20.4359 10.2075 20.2063C10.9084 19.9768 11.5188 19.5316 11.9515 18.9345C12.3843 18.3374 12.6173 17.6188 12.6173 16.8813V0.5H16.7435C16.7406 0.848435 16.7698 1.19639 16.8307 1.53948C16.9741 2.30537 17.2722 3.03396 17.7068 3.68068C18.1415 4.3274 18.7035 4.87867 19.3585 5.30075C20.2903 5.91688 21.3829 6.24528 22.5 6.24505V10.342Z" fill="#FCFBFB"/>
</g>
<defs>
<clipPath id="clip0_452_2013">
<rect width="24" height="24" fill="white" transform="translate(0 0.5)"/>
</clipPath>
</defs>
</svg>
