<svg width="209" height="87" viewBox="0 0 209 87" fill="none" xmlns="http://www.w3.org/2000/svg">
<rect width="209" height="87" fill="white"/>
<g clip-path="url(#clip0_283_2653)">
<path d="M61.8711 36.5742V57.652H66.948V51.4127H68.546C72.0678 51.4127 73.8102 50.0431 74.6812 48.4444C75.3228 47.1063 75.6219 45.6285 75.5516 44.1449H75.5463C75.5463 41.7857 74.8258 36.5742 68.9931 36.5742H61.8711ZM66.948 38.5911L67.4401 38.5964C69.6751 38.5964 70.4323 40.7638 70.4323 44.1502C70.4323 47.3842 69.6743 49.3639 67.3634 49.3639H66.948V38.5911Z" fill="#4B3C3C"/>
<path d="M46 30.335V51.3756H53.122C58.9561 51.3756 59.6752 46.2013 59.6752 43.8421C59.7447 42.3583 59.4447 40.8805 58.8022 39.5426C57.9312 37.9453 56.1888 36.5743 52.667 36.5743H51.0743V30.335H46ZM51.0743 38.5912H51.4923C53.8032 38.5912 54.5612 40.5682 54.5612 43.8022C54.5612 47.1886 53.8041 49.3587 51.569 49.3587H51.0743V38.5912Z" fill="#4B3C3C"/>
<path d="M110.244 36.117C108.635 36.0802 107.03 36.2589 105.468 36.6485V38.9311C105.791 38.7991 106.12 38.6847 106.455 38.5883C108.388 38.0183 111.873 37.6387 111.873 41.1393V41.5964H111.797C111.305 41.5964 110.583 41.5973 109.712 41.6735C108.786 41.7437 107.872 41.9221 106.987 42.2049C105.982 42.4773 105.101 43.0859 104.487 43.93C103.874 44.7742 103.566 45.8033 103.614 46.8473C103.614 50.1956 105.77 51.4125 108.762 51.4125H116.911L116.948 41.5964C116.948 38.1719 114.6 36.117 110.244 36.117ZM111.802 43.4937H111.879V49.3132L110.969 49.316C109.87 49.2751 108.733 49.0497 108.733 46.6905C108.706 46.2735 108.766 45.8553 108.909 45.4629C109.053 45.0705 109.276 44.7123 109.565 44.4115C109.854 44.1106 110.202 43.8736 110.587 43.7156C110.972 43.5575 111.386 43.4819 111.802 43.4937Z" fill="#FFCD00"/>
<path d="M157.407 36.0481C151.726 36.01 150.325 40.202 150.325 43.4673C150.325 46.3204 151.425 51.8379 158.849 51.8379C160.399 51.8377 161.941 51.6194 163.431 51.1895V48.7182C160.174 50.0052 155.591 50.1576 155.288 43.9563V43.8792H164V42.3645C164 38.7128 161.574 36.0481 157.407 36.0481ZM157.222 38.1394C158.509 38.1394 158.813 39.8828 158.889 41.4053V41.7108V41.756H155.365V41.6417C155.516 39.6254 155.972 38.1394 157.222 38.1394Z" fill="#FFCD00"/>
<path d="M142.706 38.0952C141.152 38.0952 140.395 40.8721 140.888 45.0191C141.456 50.0408 145.926 50.0408 148.956 48.7483V51.2218C147.425 51.645 145.846 51.8623 144.258 51.868C143.154 51.9591 142.042 51.8122 140.999 51.4371C139.956 51.0619 139.004 50.4673 138.208 49.6928C137.412 48.9184 136.789 47.9821 136.383 46.9466C135.976 45.9111 135.794 44.8003 135.849 43.6884C135.849 40.4925 136.986 36.0789 143.008 36.0789C143.836 36.0131 144.668 36.1245 145.45 36.4057C146.231 36.687 146.945 37.1316 147.543 37.7103C148.141 38.289 148.609 38.9885 148.918 39.7627C149.227 40.5369 149.369 41.3681 149.334 42.2014H144.518C144.518 39.9946 144.063 38.0925 142.701 38.0925" fill="#FFCD00"/>
<path d="M82.7803 36.5742V51.4123H77.7427V36.5742H82.7803Z" fill="#4B3C3C"/>
<path d="M133.614 51.4123H128.539V42.5089C128.539 39.0082 127.212 38.8178 125.357 38.7797H125.015V51.411H119.978V36.5361C120.395 36.5742 121.758 36.6123 126.304 36.6123C133.618 36.6123 133.652 40.0368 133.652 42.7756L133.614 51.4123Z" fill="#FFCD00"/>
<path d="M95.3561 30.335V32.4656C94.863 32.4656 94.3713 32.4656 93.8783 32.5037C93.397 32.5239 92.9228 32.627 92.4763 32.8084C92.0014 33.0155 91.6071 33.3733 91.3539 33.8269C91.1007 34.2805 91.0025 34.805 91.0743 35.32V36.5758H94.6355V38.7445H91.0743V51.3758H86.0381V36.4982C86.0381 30.9812 89.7875 30.335 94.3713 30.335H95.3561Z" fill="#FFCD00"/>
<path d="M103.5 38.2488C103.075 38.2218 102.651 38.2897 102.256 38.4476C101.861 38.6054 101.506 38.8493 101.216 39.1616C100.926 39.4739 100.709 39.8469 100.58 40.2537C100.451 40.6604 100.413 41.0909 100.469 41.5141V51.3685H95.4319V41.3617C95.4319 38.3562 98.1965 36.0732 102.476 36.0732H103.498L103.5 38.2488Z" fill="#FFCD00"/>
<path d="M80.2744 33.5306C79.6314 33.5306 79.0029 33.3391 78.4683 32.9803C77.9336 32.6215 77.517 32.1115 77.2709 31.5149C77.0248 30.9182 76.9605 30.2617 77.0859 29.6283C77.2113 28.9949 77.521 28.413 77.9756 27.9564C78.4303 27.4997 79.0095 27.1887 79.6402 27.0627C80.2708 26.9368 80.9244 27.0014 81.5185 27.2486C82.1125 27.4957 82.6202 27.9142 82.9774 28.4512C83.3347 28.9882 83.5253 29.6195 83.5253 30.2653C83.5253 30.6941 83.4412 31.1187 83.2779 31.5149C83.1145 31.9111 82.875 32.271 82.5731 32.5742C82.2713 32.8774 81.9129 33.118 81.5185 33.2821C81.124 33.4462 80.7013 33.5306 80.2744 33.5306Z" fill="#4B3C3C"/>
<path d="M80.2744 61.0003C79.6314 61.0003 79.0029 60.8088 78.4683 60.45C77.9336 60.0912 77.517 59.5813 77.2709 58.9846C77.0248 58.388 76.9605 57.7314 77.0859 57.098C77.2113 56.4646 77.521 55.8828 77.9756 55.4261C78.4303 54.9695 79.0095 54.6585 79.6402 54.5325C80.2708 54.4065 80.9244 54.4711 81.5185 54.7183C82.1125 54.9654 82.6202 55.384 82.9774 55.9209C83.3347 56.4579 83.5253 57.0892 83.5253 57.735C83.5253 58.1638 83.4412 58.5884 83.2779 58.9846C83.1145 59.3808 82.875 59.7407 82.5731 60.044C82.2713 60.3472 81.9129 60.5877 81.5185 60.7518C81.124 60.9159 80.7013 61.0003 80.2744 61.0003Z" fill="#FFCD00"/>
</g>
<defs>
<clipPath id="clip0_283_2653">
<rect width="118" height="34" fill="white" transform="translate(46 27)"/>
</clipPath>
</defs>
</svg>
