<svg width="150" height="87" viewBox="0 0 150 87" fill="none" xmlns="http://www.w3.org/2000/svg">
<rect width="209" height="87" fill="white"/>
<g clip-path="url(#clip0_182_1577)">
<path d="M168.5 27V60H40.5V27H168.5Z" fill="black"/>
<path d="M163.503 45.1731C163.503 45.1731 163.478 45.2283 163.391 45.2283H156.488C156.377 45.2283 156.323 45.2835 156.323 45.2835C156.323 45.2835 156.241 45.3133 156.241 45.4534V53.0407C156.241 53.1554 156.187 53.1809 156.187 53.1809C156.187 53.1809 156.158 53.2404 156.076 53.2404H150.588C150.509 53.2404 150.452 53.1809 150.452 53.1809C150.452 53.1809 150.423 53.1554 150.423 53.0152V45.4237C150.423 45.343 150.357 45.2835 150.357 45.2835C150.357 45.2835 150.315 45.2283 150.245 45.2283H143.16C143.024 45.2283 143 45.1986 143 45.1986C143 45.1986 142.946 45.1433 142.946 44.9734V39.421C142.946 39.353 143 39.2808 143 39.2808C143 39.2808 143.024 39.2553 143.082 39.2553H150.315C150.373 39.2553 150.373 39.2256 150.373 39.2256C150.373 39.2256 150.423 39.1959 150.423 39.1406V32.4922C150.423 32.4115 150.452 32.352 150.452 32.352C150.452 32.352 150.509 32.3223 150.67 32.3223H156.051C156.158 32.3223 156.187 32.352 156.187 32.352C156.187 32.352 156.241 32.4115 156.241 32.5219V39.1959H163.272C163.449 39.1959 163.503 39.2256 163.503 39.2256C163.503 39.2256 163.585 39.2553 163.585 39.421V45.0329C163.585 45.0881 163.503 45.1731 163.503 45.1731ZM142.084 52.9897C142.059 53.1554 142.03 53.2107 142.03 53.2107C142.03 53.2107 142.001 53.2701 141.865 53.2701H130.736C130.415 53.2701 130.328 53.1809 130.328 53.1809C130.328 53.1809 130.274 53.0705 130.299 52.8198L133.059 33.0699C133.088 32.8321 133.142 32.7471 133.142 32.7471C133.142 32.7471 133.171 32.7471 133.427 32.7471H138.494C138.63 32.7471 138.671 32.7726 138.671 32.7726C138.671 32.7726 138.7 32.8618 138.671 32.9722L136.596 48.4059C136.567 48.5716 136.649 48.5886 136.649 48.5886C136.649 48.5886 136.703 48.6184 136.926 48.6184H142.426C142.546 48.6184 142.587 48.6693 142.587 48.6693C142.587 48.6693 142.616 48.6991 142.616 48.8393L142.084 52.9897ZM127.902 53.2956H122.958C122.851 53.3508 122.764 53.2404 122.764 53.2404C122.764 53.2404 122.74 53.2107 122.711 53.0407L122.055 49.8928C122.001 49.7399 121.947 49.6549 121.947 49.6549C121.947 49.6549 121.811 49.5699 121.646 49.5699H115.218C115.094 49.5699 115.011 49.6549 115.011 49.6549C115.011 49.6549 114.904 49.7526 114.846 49.9226L113.386 53.1299C113.361 53.2107 113.307 53.2404 113.307 53.2404C113.307 53.2404 113.196 53.2701 113.142 53.2701H107.572C107.435 53.2956 107.394 53.2107 107.394 53.2107C107.394 53.2107 107.369 53.1554 107.436 53.0407L117.252 32.8873C117.305 32.8618 117.359 32.7726 117.359 32.7726C117.359 32.7726 117.417 32.7471 117.578 32.7471H123.656C123.792 32.7471 123.87 32.8321 123.87 32.8321C123.87 32.8321 123.899 32.8618 123.928 32.9425L128.009 53.1809C128.009 53.2404 127.98 53.2701 127.98 53.2701C127.98 53.2701 127.98 53.2956 127.902 53.2956ZM104.733 53.2701H99.7896C99.7071 53.2701 99.6287 53.2701 99.6287 53.2701C99.6287 53.2701 99.6122 53.2404 99.5833 53.2107L92.7172 40.6742C92.6636 40.619 92.6388 40.619 92.6388 40.619C92.6388 40.619 92.5811 40.619 92.5811 40.6997L90.8769 53.0152C90.848 53.1554 90.8191 53.1809 90.8191 53.1809C90.8191 53.1809 90.7655 53.2107 90.683 53.2107H85.7686C85.6902 53.2107 85.6325 53.1554 85.6325 53.1554C85.6325 53.1554 85.5252 53.0407 85.5664 52.9303L88.2526 33.002C88.2815 32.8873 88.3393 32.8618 88.3393 32.8618C88.3393 32.8618 88.4177 32.7726 88.5002 32.7726H93.9881C94.0706 32.7726 94.1243 32.8321 94.1243 32.8321C94.1243 32.8321 94.1779 32.8618 94.2068 32.9425L100.392 44.1195C100.499 44.3404 100.582 44.3149 100.582 44.3149C100.582 44.3149 100.664 44.3149 100.718 44.06L102.278 32.9425C102.278 32.8618 102.327 32.8321 102.327 32.8321C102.327 32.8321 102.356 32.7726 102.439 32.7726L107.596 32.8321C107.708 32.8321 107.737 32.8618 107.737 32.8618C107.737 32.8618 107.761 32.8873 107.761 32.9425L104.976 53.0407C104.947 53.1554 104.898 53.2404 104.898 53.2404C104.898 53.2404 104.869 53.2701 104.733 53.2701ZM83.1196 53.2107L78.3166 53.2404C78.2052 53.2404 78.1268 53.1809 78.1268 53.1809C78.1268 53.1809 78.0979 53.1554 78.0691 52.96L77.3181 49.7526C77.3181 49.6847 77.2686 49.6549 77.2686 49.6549C77.2686 49.6549 77.2397 49.6549 77.1819 49.6549H70.3984C70.2622 49.6549 70.1797 49.7526 70.1797 49.7526C70.1797 49.7526 70.0724 49.8376 69.9899 50.033L68.6365 53.0152C68.5828 53.1299 68.554 53.1554 68.554 53.1554C68.554 53.1554 68.4756 53.2107 68.4054 53.2107H62.8102C62.6452 53.2404 62.6163 53.1554 62.6163 53.1554C62.6163 53.1554 62.5874 53.0705 62.6452 52.96L72.3501 32.8873C72.3914 32.7726 72.4739 32.7471 72.4739 32.7471C72.4739 32.7471 72.5275 32.7471 72.6637 32.7471H78.8489C78.9603 32.7471 79.0387 32.8321 79.0387 32.8321C79.0387 32.8321 79.0676 32.8618 79.0965 32.9425L83.2557 53.0705C83.2557 53.1554 83.2062 53.1809 83.2062 53.1809C83.2062 53.1809 83.1773 53.2107 83.1196 53.2107ZM119.765 38.5544C119.765 38.5544 119.736 38.5544 119.707 38.6648L117.008 44.9479C116.951 45.1433 116.979 45.1731 116.979 45.1731C116.979 45.1731 117.058 45.2283 117.116 45.2283L121.114 45.1986C121.143 45.1986 121.168 45.1986 121.168 45.1986C121.168 45.1986 121.196 45.1731 121.168 45.0881L119.818 38.6351C119.794 38.5544 119.765 38.5544 119.765 38.5544ZM74.9166 38.6351C74.9166 38.6351 74.8919 38.6351 74.863 38.6946L72.1603 45.0031C72.1067 45.0881 72.1314 45.1433 72.1314 45.1433C72.1314 45.1433 72.1603 45.1731 72.2965 45.1731L76.2659 45.1986C76.2948 45.1986 76.3072 45.1731 76.3072 45.1731C76.3072 45.1731 76.3361 45.1433 76.3072 45.0584L74.9414 38.6946C74.9414 38.6351 74.9166 38.6351 74.9166 38.6351ZM61.0772 52.5097C61.0483 52.7306 60.9411 52.9005 60.9411 52.9005C60.9411 52.9005 60.8255 53.0152 60.6522 53.0705C58.0444 54.1538 55.1602 53.7884 55.1602 53.7884C50.481 53.2701 47.5184 50.3134 46.5611 46.507C45.1541 40.8017 47.9434 36.7531 48.6242 35.8823C50.2624 33.8559 52.8289 32.4115 55.3541 32.0716C58.5643 31.6086 60.9411 32.3817 61.9231 32.7216C61.9231 32.7216 63.0001 33.07 63.8047 33.635C64.2132 33.9153 64.2709 34.0258 64.2709 34.0258C64.2709 34.0258 64.2957 34.0853 64.1843 34.5186L63.425 38.6054C63.3962 38.7753 63.2971 38.8602 63.2971 38.8602C63.2971 38.8602 63.2435 38.89 62.8598 38.6351C60.4335 36.8636 57.5947 37.076 57.5947 37.076C55.4367 37.2162 52.9114 38.3844 52.1604 41.3327C51.492 43.9496 52.1893 46.1417 53.6995 47.4459C54.7269 48.3762 56.3238 48.8393 58.0032 48.7585C59.8311 48.6184 61.2918 47.8707 61.1845 47.9259C61.1845 47.9259 61.2629 47.8962 61.3496 47.8707C61.7292 47.6753 61.8117 47.7007 61.8117 47.7007C61.8117 47.7007 61.8942 47.7857 61.8364 48.0406L61.0772 52.5097Z" fill="white"/>
</g>
<defs>
<clipPath id="clip0_182_1577">
<rect width="128" height="33" fill="white" transform="translate(40.5 27)"/>
</clipPath>
</defs>
</svg>
