<svg width="209" height="87" viewBox="0 0 209 87" fill="none" xmlns="http://www.w3.org/2000/svg">
<rect width="209" height="87" fill="white"/>
<g clip-path="url(#clip0_182_1549)">
<path fill-rule="evenodd" clip-rule="evenodd" d="M86.0635 34.5547H93.1553C97.5464 34.5547 100.651 37.3948 100.651 41.4317C100.651 45.4686 97.5464 48.3088 93.1553 48.3088H86.0635V34.5547ZM91.5753 44.5934H92.8614C94.2394 44.5934 94.9743 43.7003 94.9743 41.4317C94.9743 39.1632 94.2394 38.2701 92.8614 38.2701H91.5753V44.5934ZM113.145 48.3088H101.496V34.5547H113.145V38.2701H106.99V39.8598H112.777V42.8964H106.99V44.5934H113.145V48.3088ZM126.116 48.3088H114.468V34.5547H126.116V38.2701H119.961V39.8598H125.749V42.8964H119.961V44.5934H126.116V48.3088ZM168.392 48.3088C167.598 46.2056 166.488 43.9616 164.994 41.4462C166.741 40.9482 167.786 39.8776 167.786 38.2344C167.786 35.7336 165.415 34.5547 161.667 34.5547H153.951V48.3088H159.463V42.6194C160.687 44.6246 161.589 46.5169 162.182 48.3088H168.392ZM159.463 40.6993V38.2701H161.373C162.182 38.2701 162.641 38.6988 162.641 39.4847C162.641 40.2707 162.182 40.6993 161.373 40.6993H159.463ZM152.628 48.3088H140.98V34.5547H152.628V38.2701H146.473V39.8598H152.261V42.8964H146.473V44.5934H152.628V48.3088ZM127.439 38.2701H133.126C130.767 40.1471 128.825 42.2731 127.329 44.5934V48.3088H139.841V44.5934H133.587C135.02 42.5664 137.022 40.5479 139.841 38.2701V34.5547H127.439V38.2701Z" fill="black"/>
<path fill-rule="evenodd" clip-rule="evenodd" d="M70.5609 31.3788C70.8923 29.5109 71.3788 28.3362 71.9176 28.334H71.9187C72.9234 28.3374 73.7379 32.4109 73.7379 37.4403C73.7379 42.4697 72.9223 46.5465 71.9165 46.5465C71.5041 46.5465 71.1236 45.8543 70.8173 44.6942C70.3331 48.9407 69.3285 51.8597 68.1654 51.8597C67.2655 51.8597 66.4579 50.1062 65.9157 47.3408C65.5455 52.6001 64.6138 56.3316 63.5247 56.3316C62.8413 56.3316 62.2182 54.8529 61.7569 52.4453C61.2022 57.4152 59.9206 60.8975 58.4262 60.8975C56.9317 60.8975 55.6478 57.4163 55.0954 52.4453C54.6375 54.8529 54.0144 56.3316 53.3275 56.3316C52.2386 56.3316 51.3091 52.6001 50.9366 47.3408C50.3944 50.1062 49.589 51.8597 48.6869 51.8597C47.525 51.8597 46.5192 48.9417 46.0351 44.6942C45.7309 45.8576 45.3482 46.5465 44.9358 46.5465C43.93 46.5465 43.1144 42.4697 43.1144 37.4403C43.1144 32.4109 43.93 28.334 44.9358 28.334C45.4758 28.334 45.9587 29.512 46.2936 31.3788C46.8301 28.1579 47.7015 26.0645 48.6869 26.0645C49.8567 26.0645 50.8705 29.0251 51.3501 33.3241C51.8194 30.1952 52.5313 28.2005 53.3287 28.2005C54.4462 28.2005 55.3961 32.1237 55.7481 37.5962C56.4099 34.7904 57.368 33.0302 58.4285 33.0302C59.4889 33.0302 60.4469 34.7915 61.1076 37.5962C61.4607 32.1237 62.4095 28.2005 63.5271 28.2005C64.3232 28.2005 65.034 30.1952 65.5056 33.3241C65.9841 29.0251 66.9979 26.0645 68.1677 26.0645C69.1496 26.0645 70.0243 28.159 70.5609 31.3788ZM40.5117 36.5446C40.5117 34.2964 40.9742 32.4733 41.5449 32.4733C42.1156 32.4733 42.578 34.2964 42.578 36.5446C42.578 38.7928 42.1156 40.6159 41.5449 40.6159C40.9742 40.6159 40.5117 38.7928 40.5117 36.5446ZM74.2735 36.5446C74.2735 34.2964 74.736 32.4733 75.3067 32.4733C75.8773 32.4733 76.3398 34.2964 76.3398 36.5446C76.3398 38.7928 75.8773 40.6159 75.3067 40.6159C74.736 40.6159 74.2735 38.7928 74.2735 36.5446Z" fill="#A238FF"/>
</g>
<defs>
<clipPath id="clip0_182_1549">
<rect width="128" height="35" fill="white" transform="translate(40.5 26)"/>
</clipPath>
</defs>
</svg>
