<svg width="209" height="87" viewBox="0 0 209 87" fill="none" xmlns="http://www.w3.org/2000/svg">
<rect width="209" height="87" fill="white"/>
<g clip-path="url(#clip0_182_1546)">
<path fill-rule="evenodd" clip-rule="evenodd" d="M69.1675 52.7334C71.3938 52.7298 72.7689 50.9626 72.7689 48.3372C72.7689 45.7095 71.3975 43.9473 69.1738 43.9473C66.9499 43.9473 65.5847 45.7033 65.5847 48.3372C65.5847 50.9688 66.9475 52.7298 69.1675 52.7334ZM70.8354 39.6871C75.0792 39.6871 77.8775 43.3476 77.9392 48.2754C77.9392 53.2837 75.0113 56.9936 70.718 56.9936C68.5573 57.0418 66.5286 55.956 65.3685 54.1308H65.3006V56.6721H60.643V34.3635C60.643 32.6632 61.7734 31.5997 63.1138 31.5997C64.4543 31.5997 65.5847 32.6632 65.5847 34.3635V42.3149H65.6527C66.8504 40.6474 68.784 39.6674 70.8354 39.6871ZM87.9835 52.7334C90.2135 52.7334 91.5725 50.9651 91.5725 48.3372C91.5725 45.7095 90.2135 43.9473 87.9835 43.9473C85.7536 43.9473 84.3945 45.7033 84.3945 48.3372C84.3945 50.9713 85.7536 52.7334 87.9835 52.7334ZM87.9835 39.6871C93.2342 39.6871 96.6317 43.2795 96.6317 48.3435C96.6317 53.4074 93.2404 56.9997 87.9835 56.9997C82.7266 56.9997 79.3354 53.4074 79.3354 48.3435C79.3354 43.2795 82.7266 39.6871 87.9835 39.6871ZM153.988 39.6874C155.346 39.6874 156.477 40.7509 156.501 42.4513V56.6723H151.517V42.4513C151.517 40.7509 152.623 39.6874 153.988 39.6874ZM153.988 31C155.66 31 157.014 32.3566 157.014 34.0297C157.014 35.7028 155.66 37.0594 153.988 37.0594H153.986C152.315 37.0588 150.96 35.7022 150.961 34.0291C150.961 32.3559 152.317 31 153.988 31ZM169.579 39.6874C173.039 39.6874 174.897 42.1477 174.897 45.8767V56.6723H169.913V47.274C169.913 45.079 168.881 44.3494 167.584 44.3494C165.656 44.3494 164.193 45.9756 164.193 49.4381V56.6723H159.207V42.2967C159.207 40.6643 160.276 39.6998 161.536 39.6998C162.797 39.6998 163.859 40.6643 163.859 42.2967V42.9149H163.927C165.11 40.9154 167.258 39.6887 169.579 39.6874ZM140.75 52.7334C142.979 52.7334 144.345 50.9651 144.345 48.3372C144.345 45.7095 142.974 43.9473 140.75 43.9473C138.526 43.9473 137.161 45.7033 137.161 48.3372C137.161 50.9713 138.526 52.7334 140.75 52.7334ZM140.75 39.6871C146.007 39.6871 149.398 43.2795 149.398 48.3435C149.398 53.4074 146.007 56.9997 140.75 56.9997C135.493 56.9997 132.102 53.4074 132.102 48.3435C132.102 43.2795 135.499 39.6871 140.75 39.6871ZM124.726 44.0155C122.564 44.0155 121.236 45.6108 121.236 48.3437C121.236 51.0766 122.564 52.6719 124.726 52.6719C125.965 52.7226 127.131 52.082 127.753 51.0086H127.815L131.441 53.3396C130.18 55.8004 127.548 57 124.558 57C119.371 57 116.177 53.4071 116.177 48.3437C116.177 43.2798 119.371 39.6874 124.558 39.6874C127.548 39.6874 130.205 40.8745 131.441 43.3477L127.815 45.6782H127.753C127.131 44.6048 125.965 43.9648 124.726 44.0155ZM108.999 39.6874C112.458 39.6874 114.317 42.1477 114.33 45.8767V56.6723H109.345V47.274C109.345 45.079 108.313 44.3494 107.016 44.3494C105.089 44.3494 103.625 45.9756 103.625 49.4381V56.6723H98.6335V42.2843C98.6335 40.652 99.6836 39.6998 100.95 39.6998C102.216 39.6998 103.279 40.6643 103.279 42.2967V42.9149H103.347C104.528 40.9141 106.677 39.6874 108.999 39.6874ZM47.0839 47.354C47.0987 47.9878 47.2111 48.616 47.4174 49.2158L52.9769 45.091C52.4741 44.1623 51.4864 43.6015 50.4319 43.6442C48.8567 43.6442 47.0839 44.8313 47.0839 47.354ZM51.9145 52.9188C53.7164 52.8156 55.3323 51.773 56.1706 50.1741L59.4508 52.5478C58.1967 55.1014 55.6394 56.9934 51.3153 56.9934C49.2694 56.9898 47.2938 56.2428 45.7557 54.8912C43.5813 56.338 41.7281 56.9563 39.8749 56.9563C36.1377 56.9563 33.5 54.4522 33.5 50.6929V34.3201C33.5 32.626 34.6243 31.5625 35.9709 31.5625C37.3176 31.5625 38.4418 32.626 38.4418 34.3201V50.2787C38.4418 51.8862 39.146 52.7519 40.6224 52.7519C41.4254 52.7519 42.2965 52.2881 43.4268 51.6698C42.887 50.3844 42.614 49.0025 42.6238 47.6076C42.6238 44.077 45.1379 39.6876 50.4196 39.6876C54.9969 39.6876 57.4555 42.3519 58.4809 45.6969L49.6659 52.0291C50.2706 52.6084 51.0774 52.9281 51.9145 52.9188Z" fill="#FF6E14"/>
</g>
<defs>
<clipPath id="clip0_182_1546">
<rect width="142" height="26" fill="white" transform="translate(33.5 31)"/>
</clipPath>
</defs>
</svg>
