<svg width="209" height="87" viewBox="0 0 209 87" fill="none" xmlns="http://www.w3.org/2000/svg">
<rect width="209" height="87" fill="white"/>
<g clip-path="url(#clip0_182_1516)">
<path d="M111.297 54.3182H129.75V52.1402H114.46V45.1712H125.945V42.9676H114.46V36.5469H129.75V34.377H111.297V54.3182Z" fill="black"/>
<path d="M120.887 31.1533L118.389 33.8653L126.232 31.1533H120.887Z" fill="black"/>
<path d="M160.729 52.1402V34.377H157.845V54.3182H176.5V52.1402H160.729Z" fill="black"/>
<path d="M141.708 34.377L131.214 54.3182H134.761L137.446 49.1568H150.032L152.739 54.3182H156.25L145.747 34.377H141.708ZM138.774 46.6573L143.719 37.1324L148.722 46.6573H138.774Z" fill="black"/>
<path d="M101.284 45.9797C106.012 44.7607 106.471 41.3615 106.447 40.1463C106.165 36.5839 103.681 34.377 99.2174 34.377H86.2097V54.3182H89.175V45.9531H97.6433L103.873 54.3182H107.611C107.611 54.3182 103.127 48.6884 101.284 45.9797ZM98.8125 43.5969H89.175V36.7373H99.1484C101.445 36.7373 102.736 37.773 103.202 39.0888C103.509 39.9907 103.312 41.1746 102.803 41.9807C101.969 43.3133 100.386 43.5969 98.8125 43.5969Z" fill="black"/>
<path d="M68.3901 31C60.0196 31 54.3145 36.7025 54.3145 43.6045C54.3145 50.8706 60.6166 56 68.3901 56C76.1584 56 82.4581 50.9438 82.4581 43.6045C82.4581 36.7025 76.6823 31 68.3901 31ZM68.2897 53.5247C62.4985 53.5247 57.727 49.0281 57.727 43.6112C57.727 38.2018 62.2733 33.4898 68.5142 33.4898C74.6004 33.4898 79.0744 38.2018 79.0744 43.6112C79.0744 49.0279 74.0783 53.5247 68.2897 53.5247Z" fill="black"/>
<path d="M46.8457 41.4315H48.9853L52.869 34.377H49.7438L46.8457 41.4315Z" fill="black"/>
<path d="M36.3859 52.1402V34.377H33.5V54.3182H52.1542V52.1402H36.3859Z" fill="black"/>
</g>
<defs>
<clipPath id="clip0_182_1516">
<rect width="143" height="25" fill="white" transform="translate(33.5 31)"/>
</clipPath>
</defs>
</svg>
