<svg width="210" height="87" viewBox="0 0 210 87" fill="none" xmlns="http://www.w3.org/2000/svg">
<rect width="209" height="87" transform="translate(0.5)" fill="white"/>
<g clip-path="url(#clip0_660_375)">
<path d="M64.5378 56.1952C62.838 56.4689 61.1082 56.5509 59.3189 56.7695L53.8611 42.1133V57.3985C52.1612 57.5625 50.6105 57.7813 49 58V30H53.5332L59.7363 45.887V30H64.5378V56.1952ZM73.9322 40.2539C75.7813 40.2539 78.6145 40.1719 80.3144 40.1719V44.5468C78.1968 44.5468 75.7216 44.5468 73.9322 44.6288V51.1367C76.7357 50.9727 79.539 50.7538 82.3721 50.6717V54.8824L69.1603 55.8397V30H82.3721V34.375H73.9322V40.2539ZM100.117 34.3751H95.1662V54.5001C93.5558 54.5001 91.9453 54.5001 90.3947 54.5546V34.3751H85.4442V30H100.117L100.117 34.3751ZM107.871 39.9532H114.402V44.3281H107.871V54.254H103.188V30H116.52V34.375H107.871V39.9532ZM124.274 50.4258C126.988 50.4803 129.731 50.672 132.386 50.8085V55.1289C128.121 54.8826 123.856 54.6369 119.502 54.5546V30H124.274V50.4258ZM136.412 55.4297C137.933 55.5118 139.543 55.5939 141.094 55.7577V30H136.412V55.4297ZM162 30L155.946 43.3164L162 58C160.21 57.7813 158.421 57.4805 156.632 57.207L153.202 49.1134L149.713 56.5509C147.983 56.2773 146.313 56.1952 144.584 55.9765L150.727 43.1522L145.18 30H150.309L153.441 37.3555L156.781 30L162 30Z" fill="#D81F26"/>
</g>
<defs>
<clipPath id="clip0_660_375">
<rect width="113" height="28" fill="white" transform="translate(49 30)"/>
</clipPath>
</defs>
</svg>
