<svg width="149" height="87" viewBox="0 0 149 87" fill="none" xmlns="http://www.w3.org/2000/svg">
<rect width="209" height="87" transform="translate(-60)" fill="white"/>
<g clip-path="url(#clip0_182_1513)">
<path d="M4.03783 56.1952C2.33797 56.4689 0.608215 56.5509 -1.18114 56.7695L-6.6389 42.1133V57.3985C-8.33876 57.5625 -9.88953 57.7813 -11.5 58V30H-6.96676L-0.763676 45.887V30H4.03783V56.1952ZM13.4322 40.2539C15.2813 40.2539 18.1145 40.1719 19.8144 40.1719V44.5468C17.6968 44.5468 15.2216 44.5468 13.4322 44.6288V51.1367C16.2357 50.9727 19.039 50.7538 21.8721 50.6717V54.8824L8.66035 55.8397V30H21.8721V34.375H13.4322V40.2539ZM39.6168 34.3751H34.6662V54.5001C33.0558 54.5001 31.4453 54.5001 29.8947 54.5546V34.3751H24.9442V30H39.6171L39.6168 34.3751ZM47.3708 39.9532H53.9022V44.3281H47.3708V54.254H42.6882V30H56.0196V34.375H47.3708V39.9532ZM63.7736 50.4258C66.4875 50.4803 69.2311 50.672 71.8855 50.8085V55.1289C67.6209 54.8826 63.3561 54.6369 59.002 54.5546V30H63.7736V50.4258ZM75.9116 55.4297C77.4325 55.5118 79.043 55.5939 80.5938 55.7577V30H75.9116V55.4297ZM101.5 30L95.4458 43.3164L101.5 58C99.7104 57.7813 97.9211 57.4805 96.1316 57.207L92.7021 49.1134L89.2131 56.5509C87.483 56.2773 85.813 56.1952 84.0835 55.9765L90.227 43.1522L84.6798 30H89.8091L92.9406 37.3555L96.2809 30L101.5 30Z" fill="#D81F26"/>
</g>
<defs>
<clipPath id="clip0_182_1513">
<rect width="113" height="28" fill="white" transform="translate(-11.5 30)"/>
</clipPath>
</defs>
</svg>
