<svg width="209" height="87" viewBox="0 0 209 87" fill="none" xmlns="http://www.w3.org/2000/svg">
<rect width="209" height="87" fill="white"/>
<g clip-path="url(#clip0_182_1526)">
<path d="M104.467 61V60.9431C104.525 60.8721 104.628 60.8295 104.715 60.8437C105.139 60.8295 105.549 60.8295 105.973 60.8437C106.06 60.8437 106.163 60.8721 106.221 60.9431V61H104.467Z" fill="#D1EFFA"/>
<path d="M106.221 60.9433C105.636 60.9291 105.051 60.9291 104.466 60.9433C103.662 60.9006 102.858 60.8722 102.054 60.8154C99.9197 60.6591 97.7999 60.3464 95.7239 59.8775C88.5458 58.2575 82.2447 55.0034 76.7478 50.2713C76.2361 49.8308 75.7537 49.3761 75.2566 48.9213C75.1397 48.8219 75.0373 48.6798 74.9788 48.5377C74.8911 48.3387 74.935 48.1256 75.0812 47.9693C75.2274 47.8129 75.4613 47.7561 75.666 47.8414C75.7975 47.8982 75.9291 47.955 76.0461 48.0261C81.2945 51.1808 87.0253 53.4829 93.0339 54.847C95.0514 55.3018 97.0836 55.657 99.1303 55.9128C102.069 56.2681 105.037 56.396 107.99 56.2965C109.583 56.2539 111.162 56.1118 112.741 55.9128C116.425 55.4581 120.065 54.6481 123.589 53.5113C125.445 52.9144 127.258 52.2323 129.027 51.4366C129.29 51.2945 129.612 51.2518 129.904 51.3229C130.387 51.4366 130.679 51.9197 130.562 52.3887C130.548 52.4455 130.518 52.5166 130.489 52.5734C130.372 52.7866 130.211 52.9713 130.007 53.1134C128.325 54.3923 126.513 55.5149 124.597 56.4528C120.986 58.2291 117.127 59.4938 113.15 60.2185C110.855 60.6164 108.545 60.858 106.221 60.9433Z" fill="#00A8E1"/>
<path d="M84.5693 32.139C84.9347 31.9259 85.3149 31.6985 85.7096 31.4996C86.733 30.988 87.8733 30.7322 89.0282 30.789C89.8615 30.8317 90.6217 31.059 91.2065 31.6559C91.7621 32.2101 91.9667 32.8922 92.0252 33.6311C92.0398 33.7874 92.0398 33.9437 92.0398 34.1143V41.4752C92.0398 42.1147 91.9521 42.1999 91.2942 42.1999H89.5107C89.3937 42.1999 89.2767 42.1999 89.1598 42.1857C88.9844 42.1715 88.8382 42.0294 88.8089 41.8589C88.7797 41.7026 88.7797 41.5463 88.7797 41.3899V34.8106C88.7943 34.5406 88.7651 34.2848 88.692 34.029C88.575 33.5885 88.1657 33.2758 87.6978 33.2474C86.8353 33.1906 85.9727 33.3611 85.1833 33.7164C85.0663 33.7448 84.9932 33.8585 85.0078 33.9722V41.4468C85.0078 41.5889 85.0078 41.7168 84.9786 41.8589C84.9786 42.0578 84.8178 42.1999 84.6131 42.1999C84.3938 42.2141 84.1745 42.2141 83.9406 42.2141H82.391C81.85 42.2141 81.7331 42.0862 81.7331 41.5605V34.839C81.7331 34.5974 81.7185 34.3416 81.66 34.1C81.5576 33.6169 81.1337 33.2758 80.6366 33.2474C79.7594 33.1906 78.8676 33.3611 78.0782 33.7306C77.9612 33.759 77.8881 33.8869 77.9174 34.0006V41.5747C77.9174 42.1005 77.8004 42.2141 77.2595 42.2141H75.3005C74.7888 42.2141 74.6572 42.072 74.6572 41.5889V31.7269C74.6572 31.6132 74.6718 31.4996 74.7011 31.3859C74.7596 31.2154 74.935 31.1159 75.1104 31.1159H76.9379C77.201 31.1159 77.3618 31.2722 77.4496 31.5138C77.5227 31.7127 77.5665 31.8974 77.6396 32.1106C77.7858 32.1106 77.8735 32.0111 77.9759 31.9543C78.7799 31.4711 79.6279 31.059 80.5781 30.8885C81.3091 30.7464 82.0401 30.7464 82.7711 30.8885C83.4582 31.0306 84.0722 31.4285 84.4669 31.9969C84.4962 32.0396 84.5254 32.068 84.5546 32.0964C84.54 32.1106 84.5546 32.1106 84.5693 32.139Z" fill="#00A8E1"/>
<path d="M114.876 39.2151C114.963 38.9309 115.051 38.6609 115.139 38.3767C115.811 36.1741 116.484 33.9857 117.156 31.7831L117.244 31.5274C117.317 31.2716 117.566 31.1153 117.829 31.1153H120.051C120.606 31.1153 120.723 31.2716 120.533 31.7831L119.656 34.0426C118.677 36.5152 117.697 39.002 116.718 41.4746C116.688 41.5598 116.645 41.6451 116.615 41.7304C116.513 42.0288 116.206 42.2277 115.884 42.1993C115.241 42.1851 114.598 42.1851 113.955 42.1993C113.501 42.2135 113.238 42.0146 113.077 41.6167C112.712 40.6788 112.332 39.7267 111.966 38.7888C111.089 36.5578 110.197 34.3268 109.32 32.0816C109.232 31.911 109.174 31.7121 109.13 31.5274C109.086 31.2431 109.189 31.101 109.481 31.101C110.314 31.0868 111.148 31.101 111.966 31.101C112.317 31.101 112.478 31.3284 112.566 31.6268C112.726 32.1668 112.887 32.721 113.063 33.261C113.662 35.2362 114.247 37.2257 114.846 39.2009C114.832 39.2151 114.846 39.2151 114.876 39.2151Z" fill="#232F3E"/>
<path d="M62.9617 32.6788C63.064 32.6503 63.1517 32.5935 63.2102 32.5082C63.4734 32.2524 63.7511 32.0109 64.0435 31.7835C64.8037 31.2151 65.754 30.9309 66.7043 31.0019C67.0844 31.0162 67.216 31.1298 67.2452 31.4851C67.2744 31.9682 67.2598 32.4656 67.2598 32.9488C67.2744 33.1477 67.2598 33.3324 67.2306 33.5314C67.1721 33.7872 67.0698 33.8866 66.8066 33.9151C66.6019 33.9293 66.4119 33.9151 66.2072 33.9008C65.2277 33.8156 64.2774 34.0003 63.3564 34.2987C63.1517 34.3698 63.1517 34.5119 63.1517 34.6682V41.4892C63.1517 41.617 63.1517 41.7307 63.1371 41.8586C63.1225 42.0434 62.9763 42.1855 62.7862 42.1855C62.6839 42.1997 62.5669 42.1997 62.4646 42.1997H60.5641C60.4617 42.1997 60.3448 42.1997 60.2424 42.1855C60.0524 42.1712 59.9062 42.0149 59.8916 41.8302C59.877 41.7165 59.877 41.6028 59.877 41.4892V31.8261C59.877 31.1725 59.9501 31.1014 60.6225 31.1014H62.026C62.4061 31.1014 62.5816 31.2293 62.6839 31.5846C62.7862 31.9398 62.874 32.2951 62.9617 32.6788Z" fill="#00A8E1"/>
<path d="M131.352 47.0879C132.316 47.1163 133.267 47.1732 134.202 47.4147C134.466 47.4858 134.714 47.571 134.963 47.6847C135.299 47.8126 135.518 48.1252 135.562 48.4663C135.62 48.8642 135.635 49.2763 135.606 49.6884C135.416 52.1183 134.641 54.463 133.354 56.552C132.887 57.3051 132.316 57.9872 131.659 58.584C131.527 58.7119 131.366 58.8114 131.191 58.8682C130.913 58.9393 130.738 58.7972 130.723 58.5272C130.738 58.3851 130.767 58.243 130.825 58.1009C131.337 56.7651 131.834 55.4436 132.229 54.0652C132.463 53.312 132.623 52.5447 132.726 51.7631C132.755 51.4789 132.77 51.1947 132.74 50.9105C132.726 50.4273 132.404 50.0152 131.922 49.8731C131.469 49.731 131.001 49.6457 130.518 49.6173C129.173 49.5605 127.828 49.6173 126.498 49.7878L124.729 50.001C124.539 50.0152 124.363 50.001 124.261 49.8305C124.159 49.66 124.203 49.4894 124.305 49.3189C124.422 49.1626 124.568 49.0205 124.744 48.921C125.825 48.1679 127.039 47.7131 128.325 47.4147C129.319 47.2158 130.328 47.1163 131.352 47.0879Z" fill="#00A8E1"/>
<path d="M125.226 36.6573V41.773C125.197 42.0572 125.065 42.1851 124.773 42.1993C123.984 42.2135 123.209 42.2135 122.419 42.1993C122.127 42.1993 121.995 42.0572 121.966 41.7872C121.951 41.7019 121.951 41.6024 121.951 41.5172V31.6836C121.966 31.2431 122.083 31.1152 122.536 31.1152H124.641C125.095 31.1152 125.226 31.2431 125.226 31.6836V36.6573Z" fill="#232F3E"/>
<path d="M68.6633 36.6293V31.5846C68.6779 31.2436 68.8095 31.1157 69.1604 31.1015C69.9206 31.0873 70.6808 31.0873 71.441 31.1015C71.7773 31.1015 71.8796 31.201 71.9088 31.5278C71.9235 31.6557 71.9235 31.7694 71.9235 31.8973V41.3613C71.9235 41.5176 71.9088 41.674 71.8942 41.8303C71.8796 42.015 71.7334 42.1429 71.5433 42.1571C71.4556 42.1713 71.3825 42.1713 71.2948 42.1713H69.2627C69.1896 42.1713 69.1311 42.1713 69.058 42.1571C68.8534 42.1429 68.6779 41.9866 68.6633 41.7876C68.6487 41.6739 68.6487 41.5603 68.6487 41.4466C68.6633 39.8692 68.6633 38.2493 68.6633 36.6293Z" fill="#00A8E1"/>
<path d="M70.3594 26.0144C70.5933 26.0002 70.8272 26.0429 71.0465 26.1139C71.836 26.3697 72.2453 27.0376 72.1722 27.9044C72.1137 28.6433 71.5436 29.2402 70.7833 29.3539C70.4617 29.4107 70.1255 29.4107 69.8038 29.3539C68.9705 29.1976 68.3565 28.6007 68.415 27.5776C68.5027 26.5686 69.1898 26.0144 70.3594 26.0144Z" fill="#00A8E1"/>
<path d="M123.603 26.0141C123.896 25.9857 124.188 26.0425 124.466 26.1562C125.036 26.3693 125.431 26.8809 125.46 27.4777C125.577 28.7709 124.685 29.4246 123.501 29.3961C123.34 29.3961 123.179 29.3677 123.019 29.3393C122.112 29.1261 121.644 28.444 121.732 27.4635C121.805 26.682 122.434 26.0993 123.296 26.0283C123.399 26.0141 123.501 25.9999 123.603 26.0141Z" fill="#232F3E"/>
<path d="M57.7132 35.464C57.6547 34.725 57.45 34.0003 57.143 33.3324C56.5436 32.1103 55.6226 31.2151 54.2191 30.9025C52.611 30.5614 51.1636 30.9025 49.8479 31.8546C49.7602 31.9398 49.6578 32.0109 49.5409 32.0677C49.5116 32.0535 49.4824 32.0393 49.4824 32.0251C49.4385 31.883 49.4093 31.7409 49.3654 31.5988C49.2485 31.2435 49.1023 31.1156 48.7075 31.1156C48.269 31.1156 47.8158 31.1298 47.3772 31.1156C47.0409 31.1014 46.7339 31.144 46.5 31.3998C46.5 36.3734 46.5 41.3613 46.5146 46.3207C46.7047 46.6191 46.9971 46.6759 47.3333 46.6617C47.8596 46.6475 48.3859 46.6617 48.9122 46.6617C49.8333 46.6617 49.8333 46.6617 49.8333 45.7807V41.7307C49.8333 41.6312 49.7894 41.5176 49.8917 41.4323C50.6227 41.9865 51.5145 42.3276 52.4355 42.4128C53.722 42.5407 54.8916 42.2281 55.8711 41.3755C56.5875 40.736 57.1138 39.9118 57.3915 39.0023C57.7863 37.8371 57.8155 36.6576 57.7132 35.464ZM54.2191 38.4055C54.1168 38.846 53.8829 39.2439 53.5466 39.5423C53.1665 39.855 52.6987 40.0397 52.2016 40.0397C51.456 40.0823 50.725 39.926 50.0672 39.585C49.9063 39.5139 49.804 39.3576 49.8186 39.1871V36.615C49.8186 35.7624 49.8333 34.9098 49.8186 34.0572C49.804 33.8582 49.921 33.6877 50.111 33.6166C50.9151 33.2472 51.7484 33.0766 52.6256 33.2472C53.2396 33.3324 53.7659 33.7161 54.0144 34.2703C54.2337 34.725 54.3653 35.2224 54.3945 35.7198C54.4823 36.6292 54.4823 37.5387 54.2191 38.4055Z" fill="#00A8E1"/>
<path d="M163.485 35.7771V35.834C163.427 35.7771 163.398 35.6919 163.427 35.6208V35.5071C163.427 35.5071 163.427 35.4929 163.441 35.4929H163.427V35.3508H163.456C163.456 35.3366 163.441 35.3366 163.441 35.3224C163.412 35.0524 163.354 34.7824 163.281 34.5266C162.74 32.6509 161.526 31.4146 159.553 30.9314C158.632 30.7183 157.696 30.6898 156.76 30.832C154.787 31.1162 153.369 32.1393 152.681 33.9582C152.009 35.6919 152.024 37.5961 152.696 39.3297C153.281 40.9071 154.45 41.9018 156.132 42.3139C157.023 42.527 157.959 42.5839 158.88 42.456C161.95 42.1007 163.222 39.8413 163.427 37.8803H163.412V37.6813C163.398 37.5961 163.383 37.525 163.471 37.4682V37.4966C163.471 37.4824 163.485 37.454 163.5 37.4397V35.8056C163.5 35.7914 163.485 35.7914 163.485 35.7771ZM159.977 38.4771C159.889 38.7755 159.757 39.0455 159.567 39.3013C159.246 39.7418 158.734 40.026 158.178 40.0687C157.901 40.0971 157.623 40.0971 157.345 40.0402C156.731 39.9266 156.219 39.5287 155.971 38.9745C155.752 38.5339 155.62 38.0508 155.576 37.5676C155.503 36.7292 155.488 35.8908 155.693 35.0666C155.766 34.7398 155.912 34.413 156.088 34.1287C156.409 33.6172 156.965 33.2903 157.579 33.2477C157.857 33.2193 158.135 33.2193 158.412 33.2761C158.997 33.3898 159.48 33.7593 159.743 34.2851C159.991 34.7824 160.137 35.3366 160.167 35.8908C160.181 36.1466 160.196 36.4024 160.181 36.6582C160.225 37.2834 160.152 37.8945 159.977 38.4771Z" fill="#232F3E"/>
<path d="M137.858 26.1133H135.826C135.27 26.1133 135.168 26.2128 135.168 26.7527V31.3569C135.168 31.4564 135.212 31.5558 135.139 31.6553C135.007 31.6411 134.934 31.5558 134.832 31.499C133.311 30.6322 131.718 30.4758 130.109 31.2006C128.984 31.7121 128.282 32.6358 127.829 33.73C127.39 34.7816 127.288 35.89 127.317 37.0126C127.317 38.0642 127.566 39.1015 128.048 40.0394C128.604 41.0767 129.408 41.8725 130.577 42.2136C132.171 42.6967 133.662 42.4551 135.022 41.4746C135.124 41.4178 135.182 41.3183 135.314 41.2899C135.387 41.4462 135.446 41.6167 135.475 41.7873C135.533 42.0146 135.738 42.1709 135.986 42.1709H136.337C136.864 42.1709 137.375 42.1851 137.887 42.1709C138.296 42.1709 138.413 42.043 138.428 41.6309V26.6533C138.413 26.2128 138.296 26.1133 137.858 26.1133ZM135.182 36.5721V39.1583C135.212 39.3289 135.109 39.4852 134.949 39.5562C134.247 39.9399 133.443 40.0962 132.653 39.9825C131.981 39.9115 131.396 39.5136 131.089 38.931C130.855 38.4763 130.723 37.9931 130.68 37.4957C130.563 36.6005 130.636 35.691 130.855 34.8242C130.928 34.5826 131.016 34.3553 131.147 34.1279C131.454 33.5737 132.039 33.2184 132.682 33.1758C133.457 33.1048 134.232 33.2469 134.934 33.5595C135.109 33.6163 135.212 33.7869 135.197 33.9716C135.168 34.8526 135.182 35.7052 135.182 36.5721Z" fill="#232F3E"/>
<path d="M97.3756 37.5527C98.472 37.7516 99.5977 37.7658 100.694 37.5953C101.337 37.5101 101.951 37.3253 102.522 37.0269C103.18 36.6574 103.662 36.1459 103.867 35.4354C104.378 33.6449 103.589 31.8401 101.674 31.1723C100.738 30.8738 99.7439 30.7744 98.7644 30.9023C96.4545 31.158 94.9487 32.3943 94.2616 34.5401C93.7792 36.0038 93.8377 37.4958 94.2324 38.9737C94.7441 40.8637 96.0306 41.9863 97.975 42.3842C99.0861 42.6258 100.212 42.5831 101.323 42.4126C101.908 42.3131 102.492 42.171 103.048 41.9579C103.384 41.83 103.56 41.631 103.545 41.2616C103.53 40.9205 103.545 40.5653 103.545 40.21C103.545 39.7837 103.37 39.6558 102.946 39.7553C102.522 39.8548 102.112 39.94 101.688 40.0253C100.782 40.21 99.8463 40.21 98.9399 40.0537C97.6972 39.8121 96.8931 38.7748 96.9662 37.4958C97.0978 37.5101 97.244 37.5243 97.3756 37.5527ZM97.0101 35.3785C97.0539 35.0375 97.1563 34.7106 97.2879 34.398C97.7264 33.3606 98.6475 33.0054 99.5831 33.0622C99.8463 33.0764 100.109 33.1333 100.358 33.2328C100.738 33.3891 100.987 33.7301 101.03 34.128C101.074 34.3696 101.06 34.6254 100.987 34.8669C100.811 35.3785 100.387 35.5917 99.8755 35.6911C99.5685 35.7622 99.2469 35.7906 98.9252 35.7622C98.3551 35.7622 97.7703 35.7196 97.2001 35.6343C96.9808 35.6059 96.9808 35.6059 97.0101 35.3785Z" fill="#00A8E1"/>
<path d="M146.688 37.6954C147.536 37.6386 148.384 37.4822 149.144 37.0843C149.919 36.7149 150.46 36.0186 150.621 35.1944C150.723 34.6828 150.723 34.1428 150.606 33.6312C150.299 32.3523 149.466 31.5565 148.208 31.1444C147.507 30.9313 146.761 30.846 146.03 30.8744C143.574 30.9313 141.703 32.1392 140.942 34.5265C140.431 36.1038 140.504 37.7096 141.001 39.2869C141.513 40.9069 142.682 41.8874 144.349 42.328C145.065 42.4985 145.811 42.5695 146.542 42.5411C147.609 42.5269 148.676 42.328 149.685 41.9585C150.109 41.8022 150.211 41.6601 150.211 41.2195V40.1964C150.197 39.7843 150.021 39.6422 149.597 39.7417C149.276 39.8269 148.969 39.898 148.647 39.969C147.667 40.1964 146.644 40.239 145.65 40.0685C144.656 39.8838 143.983 39.3296 143.72 38.3633C143.647 38.0791 143.589 37.7949 143.559 37.4964C143.632 37.4964 143.706 37.4964 143.764 37.5249C144.729 37.6954 145.708 37.7664 146.688 37.6954ZM143.632 35.4217C143.735 34.8675 143.866 34.3275 144.217 33.8728C144.758 33.1765 145.504 32.9776 146.352 33.0628C146.425 33.0628 146.483 33.0913 146.556 33.0913C147.58 33.2476 147.828 34.0433 147.638 34.8107C147.492 35.3791 147.01 35.5923 146.469 35.6917C146.176 35.7486 145.869 35.777 145.562 35.7628C144.963 35.7486 144.378 35.7059 143.793 35.6207C143.662 35.6065 143.603 35.5496 143.632 35.4217Z" fill="#232F3E"/>
</g>
<defs>
<clipPath id="clip0_182_1526">
<rect width="117" height="35" fill="white" transform="translate(46.5 26)"/>
</clipPath>
</defs>
</svg>
