<svg width="209" height="87" viewBox="0 0 209 87" fill="none" xmlns="http://www.w3.org/2000/svg">
<rect width="209" height="87" fill="white"/>
<g clip-path="url(#clip0_283_2626)">
<path d="M55.8631 17.1252C54.7392 17.1725 54.0088 17.6924 54.0088 18.8042V68.3721C54.0088 69.2361 54.6269 70.0176 55.58 70.0176H143.967C144.761 70.0176 145.394 69.9455 145.768 68.8965C145.768 68.8965 154.726 40.8299 154.881 40.3217C155.214 39.2616 154.998 38.7234 154.094 38.1476C125.309 19.6777 82.2502 16.999 62.7215 16.999C59.9182 16.999 57.6028 17.0553 55.8715 17.1251" fill="url(#paint0_linear_283_2626)"/>
<mask id="mask0_283_2626" style="mask-type:luminance" maskUnits="userSpaceOnUse" x="-491" y="-992" width="702" height="1149">
<path d="M-490.643 156.974H210.251V-991.276H-490.643V156.974Z" fill="white"/>
</mask>
<g mask="url(#mask0_283_2626)">
<path d="M110.219 56.1916C108.983 54.749 108.493 52.8878 108.799 50.8127C109.527 45.8637 114.338 42.7354 120.773 42.7354C122.129 42.7354 123.525 42.8209 124.779 42.9807L126.051 39.247C124.5 39.0084 122.621 38.9071 120.778 38.9071C115.07 38.9071 110.107 40.8741 106.89 44.3423C106.789 44.4503 106.686 44.4481 106.623 44.4481C106.524 44.4481 106.456 44.4301 106.483 44.3423L108.095 39.2807H103.384L98.2269 55.4782C96.5859 50.698 93.2096 44.4121 89.0802 39.2807H84.0202L80.237 51.0716C82.1387 52.4872 82.7412 53.5089 83.2379 54.9628C83.2672 55.0483 83.3279 55.0663 83.42 55.0663C83.5122 55.0663 83.5571 55.0438 83.5819 54.9628C83.6178 54.8503 86.8818 44.7159 86.8818 44.7159C90.2109 49.4849 93.5153 55.7595 95.2867 62.3853H100.713L103.397 53.9906C103.426 53.905 103.485 53.887 103.575 53.887C103.669 53.887 103.73 53.9118 103.741 53.9906C104.557 59.2614 109.792 62.8039 117.213 62.8039C122.01 62.8039 126.346 61.5435 127.425 60.9651L130.237 52.0978H141.036L142.135 48.6634H131.334L133.197 42.8412H146.067L147.188 39.2807H129.111L122.974 58.485C121.672 58.8136 120.063 58.9756 118.382 58.9756C114.76 58.9756 111.86 58.1136 110.219 56.1916ZM79.738 42.8254L80.8125 39.4428C79.2682 39.1592 78.1644 39.0129 76.3212 38.9702C70.3957 38.8329 65.039 40.469 63.661 43.9349C62.029 48.0445 66.6597 50.3559 70.6722 52.2599C73.8575 53.7723 76.3751 55.2104 75.4894 57.0941C74.8016 58.5548 72.547 59.2479 69.2695 59.1737C66.4304 59.1062 62.89 58.2914 60.1004 56.8848L58.4414 60.4768C60.4937 61.431 64.7243 62.7273 68.3344 62.8106C75.114 62.9659 79.5042 61.2577 81.262 57.5622C83.3413 53.1871 78.1824 50.7947 74.0396 48.7917C70.7958 47.2231 68.5839 46.4038 69.1167 44.8262C69.7461 42.9582 73.0078 42.2493 75.9637 42.3168C77.4586 42.3528 78.5219 42.5441 79.738 42.8254Z" fill="white"/>
</g>
</g>
<defs>
<linearGradient id="paint0_linear_283_2626" x1="54.0118" y1="13.9024" x2="154.88" y2="13.9024" gradientUnits="userSpaceOnUse">
<stop stop-color="#7C2270"/>
<stop offset="0.2472" stop-color="#AA147E"/>
<stop offset="0.8146" stop-color="#E41D25"/>
<stop offset="1" stop-color="#E41D25"/>
</linearGradient>
<clipPath id="clip0_283_2626">
<rect width="101" height="53" fill="white" transform="translate(54 17)"/>
</clipPath>
</defs>
</svg>
