<svg width="202" height="87" viewBox="0 0 202 87" fill="none" xmlns="http://www.w3.org/2000/svg">
<rect width="209" height="87" fill="white"/>
<g clip-path="url(#clip0_283_2677)">
<path fill-rule="evenodd" clip-rule="evenodd" d="M50.4829 40.6845C56.1008 38.7763 57.057 33.8056 56.3398 29.2353C56.3398 29.0704 56.4833 28.9526 56.6267 28.9997C62.0055 31.5911 68.0537 37.2451 68.0537 45.726C68.0537 52.228 62.9379 57.9762 55.5031 57.9762C48.9051 58.2824 43.3111 53.241 43.0242 46.739C42.833 42.4278 45.0323 38.3758 48.7616 36.1378C48.9051 36.0436 49.0963 36.1378 49.0963 36.3027C49.168 37.1744 49.4071 39.3653 50.3872 40.6845H50.4829Z" fill="url(#paint0_linear_283_2677)"/>
<path fill-rule="evenodd" clip-rule="evenodd" d="M83.8792 52.817L84.2856 52.3458L85.5526 56.3036L85.3852 56.4685C84.429 57.3401 82.9946 57.7878 81.1539 57.7878H81.0822C79.4087 57.7878 78.0939 57.3166 77.1855 56.4449C76.2771 55.5497 75.799 54.2069 75.799 52.5107V41.7211H72.5717V37.3629H75.799V32.1094H80.7714V37.3629H84.7159V41.7211H80.7475V51.4506C80.7475 51.8982 80.867 53.3353 82.2536 53.3353C82.9707 53.3353 83.6401 53.0761 83.8792 52.817ZM86.5088 57.3401V37.3864H91.4812V57.3401H86.5088ZM88.9711 29.2354C90.6206 29.2354 91.9594 30.5546 91.9594 32.1801C91.9594 33.8056 90.6206 35.1249 88.9711 35.1249C87.3216 35.1249 86.0068 33.8292 85.9829 32.2037C85.9829 30.6017 87.3455 29.2354 88.9711 29.2354ZM104.845 36.8917C109.148 36.8917 111.514 39.2004 111.514 43.4173V57.3166H106.542V44.5952C106.446 42.3336 105.347 41.2971 103.004 41.2971C100.9 41.2971 99.2028 42.5692 98.3422 43.6529V57.3166H93.3698V37.41H98.3422V39.5302C99.7766 38.1639 102.072 36.9388 104.845 36.9388V36.8917ZM128.057 39.4596V30.0834H133.03V57.3637H128.057V55.2906C126.527 56.8925 124.376 57.7878 122.153 57.8113C116.726 57.8113 113.092 53.618 113.092 47.3751C113.092 41.1086 116.726 36.9153 122.153 36.9153C124.376 36.9388 126.527 37.8576 128.057 39.4596ZM128.057 43.6765C126.934 42.2394 125.212 41.3678 123.372 41.3206C120.288 41.3206 118.232 43.7471 118.232 47.3751C118.232 50.9795 120.288 53.4059 123.372 53.4059C125.165 53.4059 127.125 52.4636 128.057 51.0973V43.6765ZM144.648 36.9153C150.529 36.9153 154.617 41.3913 154.617 47.752V49.0948H139.58C140.082 51.8982 142.329 53.6886 145.389 53.6886C147.325 53.6886 149.453 52.8641 150.672 51.6626L151.007 51.38L153.374 54.7252L153.135 54.9372C150.887 56.8925 147.971 57.9291 144.983 57.8113C138.767 57.8113 134.392 53.5002 134.392 47.3515C134.201 41.7918 138.6 37.1273 144.266 36.9153C144.409 36.9153 144.552 36.9153 144.672 36.9153H144.648ZM139.556 45.3962H149.764C149.477 42.4043 146.967 41.038 144.648 41.038C141.158 41.038 139.843 43.6293 139.556 45.3962ZM166.641 36.9153H167V41.8625L166.57 41.7918C166.211 41.7211 165.757 41.674 165.303 41.674C163.701 41.674 161.478 42.7812 160.641 43.9592V57.3166H155.669V37.3864H160.665V39.6009C162.314 37.9047 164.49 36.9153 166.641 36.9153Z" fill="#424242"/>
</g>
<defs>
<linearGradient id="paint0_linear_283_2677" x1="69.165" y1="30.297" x2="40.4742" y2="55.077" gradientUnits="userSpaceOnUse">
<stop stop-color="#FF7854"/>
<stop offset="1" stop-color="#FD267D"/>
</linearGradient>
<clipPath id="clip0_283_2677">
<rect width="124" height="29" fill="white" transform="translate(43 29)"/>
</clipPath>
</defs>
</svg>
