<svg width="209" height="87" viewBox="0 0 209 87" fill="none" xmlns="http://www.w3.org/2000/svg">
<rect width="209" height="87" fill="white"/>
<g clip-path="url(#clip0_182_1553)">
<path d="M104.063 63.0001C95.2758 63.0001 87.8454 57.2262 85.3731 49.2769C85.3654 49.2386 85.3809 49.2002 85.4193 49.1933C85.4578 49.1857 85.4962 49.201 85.5031 49.2394C88.0894 56.4635 95.4194 61.6718 104.06 61.6718C112.701 61.6718 120.031 56.4635 122.617 49.2394C122.625 49.201 122.663 49.1857 122.704 49.1933C122.743 49.201 122.758 49.2394 122.75 49.2769C120.278 57.2262 112.85 63.0001 104.063 63.0001Z" fill="black"/>
<path d="M95.2809 33.2405C95.2732 33.2267 95.2271 33.1806 95.2117 33.1699C95.1578 33.1323 95.1332 33.1346 95.0894 33.1453C95.0432 33.1561 95.0355 33.1699 95.0024 33.1806C94.964 33.1913 94.924 33.1913 94.8855 33.1779C94.8071 33.1534 94.7555 33.0535 94.6955 32.9858C94.6801 33.005 94.6494 33.0426 94.6494 33.0426C94.4378 32.9506 94.2232 32.9099 93.9924 32.9804C93.9693 32.9858 93.9308 32.959 93.9055 32.9505C93.8216 33.1183 93.6447 33.1453 93.4878 33.1777C93.4185 33.1915 93.3493 33.2238 93.2785 33.2616C93.2401 33.2885 93.2016 33.3726 93.1616 33.4023C93.1231 33.4376 93.08 33.4215 93.0446 33.4591C92.9277 33.5862 92.8462 33.7323 92.8439 33.8676C92.8412 33.9732 92.8054 34.057 92.6946 34.1057C92.6485 34.1272 92.597 34.1732 92.5754 34.2193C92.4562 34.452 92.3339 34.6901 92.2362 34.9364C92.1977 35.0365 92.1823 35.1746 92.13 35.2665C92.0462 35.4208 92.0839 35.5587 92.1146 35.7102C92.1454 35.8672 92.2338 36.2243 92.2338 36.2243C91.7423 36.2351 90.9638 36.262 90.3451 36.2919C90.3396 36.2134 90.1851 35.9644 90.1551 35.9185C90.1243 35.8755 90.0466 35.6398 90.2012 35.4775C90.2551 35.4153 90.4266 35.169 90.4266 35.0094C90.432 34.6143 90.2689 34.1815 90.2312 33.8595C90.4266 33.5781 90.2235 33.294 90.2389 33.0072C90.2389 32.9988 90.2005 32.9643 90.1851 32.9451C90.3859 32.6908 90.4589 32.2687 90.3205 32.1902C89.8643 32.7503 90.1304 33.497 89.8512 34.1139C89.8281 34.1978 89.7896 34.2763 89.8742 34.3682C89.9527 34.4494 89.8128 34.7768 89.7604 34.7254C89.8374 34.5711 89.622 34.4359 89.5189 34.2952C89.4881 34.2546 89.5189 34.2059 89.5189 34.1626C89.695 33.984 89.7797 33.7974 89.6112 33.5647C89.565 33.4995 89.5804 33.3942 89.565 33.3104C89.7658 33.2319 89.8773 33.0885 89.8312 32.9099C89.785 32.7259 89.8389 32.5636 89.9081 32.4013C89.992 32.2011 90.082 32.0008 90.1689 31.7952C90.2228 31.6626 90.2612 31.5355 90.1662 31.4191C90.1508 31.4 90.1432 31.3647 90.1509 31.3516C90.257 31.0621 90.4001 30.7915 90.5716 30.5264C90.6801 30.3235 90.8047 30.1368 90.9432 29.9555C89.0245 31.541 87.4505 33.4593 86.3242 35.6157C86.3089 35.6403 86.2858 35.6533 86.2627 35.6533C86.2243 35.6533 86.1935 35.6211 86.1935 35.5827L86.1989 35.5559C87.7241 32.1603 90.1773 29.2787 93.2955 27.2224C96.4923 25.1147 100.218 24 104.067 24C107.915 24 111.641 25.1147 114.838 27.2224C117.956 29.2787 120.409 32.1603 121.934 35.5559L121.94 35.5827C121.94 35.6203 121.909 35.6533 121.87 35.6533C121.847 35.6533 121.824 35.6395 121.809 35.618C121.564 35.1418 121.294 34.6846 121.006 34.2381C120.87 34.1326 120.737 34.0352 120.661 33.8674C120.599 33.7267 120.349 33.6808 120.238 33.5563C120.124 33.4292 119.986 33.3101 119.909 33.1612C119.755 32.8528 119.492 32.6797 119.188 32.52C118.884 32.317 118.642 32.0248 118.322 31.8165C118.291 31.8004 118.268 31.8434 118.245 31.8733C118.291 32.0952 118.462 32.2818 118.668 32.4225C118.864 32.5984 118.983 32.8392 119.244 32.9636C119.485 33.1097 119.675 33.3316 119.887 33.5209L119.879 33.5347L119.841 33.5861C119.779 33.5401 119.713 33.4942 119.651 33.4482L119.635 33.4566C119.666 33.5272 119.674 33.619 119.725 33.6487C119.879 33.7515 119.906 33.9138 119.885 34.0329C119.882 34.052 119.879 34.0682 119.877 34.0843C119.871 34.1058 119.869 34.1272 119.869 34.1495V34.1579C119.866 34.174 119.866 34.1847 119.866 34.2039C119.866 34.2878 119.882 34.3663 119.905 34.4447C119.913 34.4877 119.92 34.5313 119.936 34.5773C119.79 34.4799 119.64 34.3907 119.499 34.2878C119.468 34.2633 119.468 34.1985 119.453 34.1498V34.1279C119.514 34.0305 119.675 34.0927 119.808 34.0712C119.675 33.5707 119.222 33.3678 118.845 33.0566C118.668 32.9132 118.508 32.7536 118.353 32.5912C118.231 32.4586 118.101 32.3098 117.919 32.2666C117.881 32.3149 117.842 32.3531 117.816 32.41C117.785 32.4698 117.801 32.6264 117.738 32.6129C117.594 32.583 117.382 32.4695 117.255 32.5646C117.224 32.6351 117.252 32.7702 117.324 32.8216C117.503 32.9704 117.393 33.1138 117.255 33.2275C117.155 33.3222 117.16 33.4845 117.16 33.6116C117.16 33.663 117.152 33.7415 117.175 33.7632C117.381 33.8958 117.27 34.0986 117.305 34.2691C117.303 34.4098 117.29 34.629 117.121 34.648C116.673 34.6855 116.499 35.0863 116.421 34.9726C116.296 34.8617 116.258 34.8265 116.176 34.748C116.075 34.6479 115.989 34.5992 115.845 34.7051C115.776 34.7565 115.653 34.7457 115.547 34.7618C115.516 34.6644 115.501 34.5806 115.47 34.5102C115.431 34.4155 115.424 34.3127 115.274 34.2883C115.228 34.2829 115.158 34.2692 115.168 34.1341C115.207 33.6903 115.019 33.3522 114.758 33.0086C114.735 32.9733 114.636 32.938 114.628 32.8949C114.605 32.7867 114.712 32.8543 114.786 32.803C114.855 32.7546 114.781 32.6649 115.033 32.6839C115.424 32.7138 115.82 32.6356 116.262 32.6C116.021 32.2482 115.983 31.9804 115.898 31.8857C115.829 31.8018 115.573 31.6395 115.361 31.5286C115.307 31.5017 115.231 31.491 115.165 31.4933C115.005 31.4987 114.87 31.4634 114.778 31.3228C114.916 31.1117 115.152 31.2959 115.342 31.1983C115.273 31.1255 115.138 31.0279 115.136 30.971C115.225 30.9304 115.383 31.014 115.475 31.0332C115.529 30.9439 115.578 30.8789 115.63 30.7951C115.607 30.7521 115.516 30.6545 115.535 30.6193C115.745 30.4055 115.766 30.4921 115.665 30.2052C115.704 30.1753 115.755 30.2891 115.809 30.3513C115.825 30.2785 115.939 30.2052 115.701 30.0699C115.685 30.0561 115.755 30.0293 115.795 29.9994C115.826 29.9779 115.793 29.9427 115.826 29.9288C115.903 29.8989 116 29.9127 116.025 29.8859C115.821 29.7235 115.664 29.5531 115.465 29.4043C115.321 29.3069 115.251 29.196 115.348 29.085C115.46 29.1471 115.574 29.2041 115.682 29.2663C115.751 29.3423 115.698 29.4259 115.826 29.472C115.857 29.4505 116.018 29.4398 116.027 29.4068C116.042 29.3692 115.918 29.2931 115.905 29.2661C115.843 29.1606 115.565 28.9496 115.471 28.9468C115.351 28.9414 115.145 28.8007 115.055 28.7168C115.086 28.7436 115.001 28.7789 115.001 28.8061C114.932 29.082 114.602 28.9765 114.497 28.7923C114.474 28.757 114.396 28.7838 114.369 28.7516C114.182 28.5405 114.19 28.5892 113.962 28.4621C113.947 28.4483 113.957 28.4107 113.947 28.3484C113.931 28.1861 113.714 28.0941 113.714 28.0535C113.714 28.0106 113.895 28.0344 113.918 27.756C112.813 27.1661 111.652 26.6791 110.452 26.3003C110.294 26.3218 110.14 26.357 110.01 26.4166C109.787 26.533 109.518 26.5222 109.266 26.4734C109.143 26.4519 109.092 26.5033 109.038 26.6032C108.992 26.6871 108.867 26.6925 108.791 26.7629L108.845 26.8765C108.783 26.9902 108.707 27.0579 108.625 27.2066C108.392 27.1174 108.193 27.0037 107.952 26.9631C107.686 26.9202 107.477 26.8062 107.303 26.6087C107.116 26.4031 106.845 26.2516 106.68 26.0243C106.633 25.9622 106.626 25.8619 106.641 25.7916C106.656 25.7371 106.731 25.705 106.804 25.686C106.85 25.6806 106.907 25.7021 106.953 25.6998C107 25.6944 107.119 25.5672 107.168 25.5456C106.573 25.4617 105.974 25.3995 105.371 25.3616C105.526 25.3992 105.638 25.4806 105.708 25.6241C105.627 25.6214 105.554 25.6156 105.483 25.6103L105.478 25.6425C105.868 25.8129 106.46 26.0213 106.593 26.1511C106.601 26.1864 106.463 26.2217 106.151 26.3107C106.074 26.3268 105.961 26.1727 105.497 26.0077C105.481 26.0023 105.418 26.043 105.42 26.0453C105.435 26.0944 105.458 26.1508 105.498 26.1806C105.647 26.278 105.807 26.37 105.984 26.4728C105.886 26.5457 105.694 26.4889 105.785 26.6947C105.563 26.5729 105.367 26.4674 105.172 26.3619L105.157 26.3833C105.265 26.4726 105.371 26.5566 105.48 26.6431C105.472 26.6593 105.464 26.673 105.449 26.6914C105.11 26.6239 104.79 26.4885 104.461 26.3776C104.423 26.3615 104.333 26.2478 104.303 26.2152C104.303 26.2152 103.994 26.0447 103.847 26.0015C103.701 25.9585 103.519 25.931 103.334 25.9394C103.15 25.9478 103.109 25.8773 103.109 25.8773C103.109 25.8773 103.17 25.7636 103.261 25.7555C103.35 25.7555 103.586 25.8177 103.728 25.8261C103.872 25.8422 104.083 25.8614 104.083 25.8614C104.068 25.7993 104.06 25.7748 104.053 25.7342C104.207 25.715 104.362 25.6936 104.53 25.6721C104.492 25.5882 104.523 25.4475 104.349 25.5665C104.318 25.588 104.237 25.5451 104.145 25.529C104.199 25.4937 104.223 25.4806 104.248 25.4615C104.194 25.453 104.129 25.4477 104.083 25.4262C104.029 25.3994 103.987 25.3641 103.947 25.3207C103.329 25.3261 102.712 25.356 102.099 25.4127C102.178 25.6156 102.433 25.6237 102.563 25.8347C102.357 25.8047 102.151 25.7481 101.95 25.7265C101.836 25.7292 101.689 25.797 101.581 25.7863C101.504 25.7778 101.453 25.605 101.445 25.6104C101.534 25.5238 101.701 25.4832 101.874 25.4345C101.474 25.4752 101.079 25.5293 100.685 25.5888C99.5127 25.8268 99.168 26.1732 99.0025 26.3409C99.0025 26.3409 99.2118 26.4546 99.2795 26.4979C99.2257 26.5871 99.1818 26.6656 99.1441 26.7279C99.3257 26.7846 99.8065 26.9417 99.9447 27.0309C100.183 27.4043 100.645 27.3773 101.025 27.5044C100.941 27.6235 100.922 27.7506 100.849 27.8616C100.833 27.8861 100.833 27.9345 100.849 27.9645C100.895 28.0619 100.902 28.1322 100.962 28.2296C100.978 28.2511 101.016 28.2864 101.041 28.2841C101.581 28.2703 101.546 28.1082 101.627 27.678C101.89 27.6427 102.542 27.6642 102.609 27.3506C102.617 27.1747 102.43 27.0123 102.295 26.9691C102.303 26.953 102.318 26.9315 102.326 26.9123C102.426 26.9069 102.681 26.8068 102.713 26.7716C102.667 26.7095 102.729 26.7011 102.644 26.6012C102.736 26.582 102.783 26.582 102.804 26.52C102.809 26.5039 102.804 26.4602 102.796 26.4334C102.791 26.4173 102.794 26.3981 102.802 26.3851C102.817 26.369 102.833 26.3583 102.863 26.3606C103.135 26.3905 103.417 26.4334 103.686 26.4986C103.808 26.5338 103.957 26.5933 104.025 26.688C104.163 26.8855 104.356 26.8774 104.529 26.9478C104.364 27.1236 104.468 27.3022 104.638 27.4131C105.01 27.681 105.403 27.4891 105.737 27.3049C105.854 27.4781 106.182 27.7785 106.312 27.9354C106.312 27.9354 106.274 28.0409 106.429 28.3006C106.593 28.5685 107.04 28.6875 107.349 28.8201C107.254 28.9201 107.303 28.958 107.749 29.1664C107.741 29.2393 107.746 29.3152 107.695 29.3586C107.618 29.4291 107.502 29.4586 107.426 29.4776C107.309 29.5129 107.199 29.486 107.106 29.4721C106.971 29.4507 106.838 29.4422 106.705 29.4936C106.439 29.5965 106.189 29.5665 105.923 29.4909C105.524 29.3773 105.123 29.2799 104.718 29.1879C104.553 29.1473 104.382 29.1396 104.23 29.2638C104.184 29.3014 104.075 29.2853 103.994 29.2991C103.784 29.3313 103.255 29.521 103.074 29.613C103.551 29.4966 104.04 29.3802 104.637 29.4019C104.738 29.4073 104.832 29.4287 104.968 29.5074C105.006 29.5289 105.049 29.578 105.037 29.6183C105.031 29.6482 104.96 29.6835 104.923 29.6835C104.79 29.6942 104.657 29.6889 104.524 29.6889C104.521 29.705 104.516 29.7188 104.516 29.7319C104.638 29.7457 104.758 29.7618 104.91 29.7779C104.823 29.8239 104.75 29.8591 104.674 29.9024C104.735 30.1838 104.964 30.2973 105.251 30.3515C105.341 30.3676 105.477 30.4221 105.569 30.4543C105.727 30.3732 105.876 30.2947 106.025 30.2108C106.064 30.1893 106.114 30.2054 106.071 30.2591C105.981 30.3484 106.056 30.343 106.033 30.3863C106.071 30.4215 106.12 30.4622 106.163 30.4999C106.178 30.5137 106.178 30.5267 106.155 30.5406C105.963 30.5106 105.968 30.5919 105.735 30.5566C105.719 30.5812 105.796 30.6272 105.673 30.6188C105.239 30.6161 104.802 30.5482 104.381 30.6973C104.292 30.7295 104.194 30.7517 104.134 30.6459C104.111 30.6106 104.073 30.5619 104.08 30.5349C104.096 30.492 104.15 30.4484 104.192 30.4403C104.336 30.408 104.485 30.3919 104.637 30.3293C104.63 30.24 104.323 30.2887 104.048 30.2864C103.937 30.373 103.552 30.3593 103.307 30.3378C103.009 30.3002 102.637 30.4137 102.488 30.6381C102.465 30.6757 102.495 30.7382 102.534 30.7652C102.572 30.8005 102.71 30.8113 102.702 30.86C102.065 30.8654 101.894 30.722 101.546 30.7545C101.546 30.7652 101.592 30.779 101.577 30.8143C101.623 30.8227 101.672 30.8304 101.716 30.8465C101.754 30.8603 101.849 30.8657 101.914 30.8733C101.929 30.8818 101.929 30.8925 101.914 30.9002C101.816 30.9002 101.667 30.9086 101.629 30.9002C101.542 30.8703 101.459 30.9002 101.396 30.9002C101.327 30.9921 101.212 30.9922 101.155 31.049C101.093 31.0973 101.036 31.2898 100.929 31.2682C100.927 31.1735 100.829 31.1491 100.794 31.1058C100.779 31.1165 100.755 31.125 100.74 31.1327C100.849 31.4709 100.495 31.452 100.401 31.6468C100.362 31.6736 100.37 31.6199 100.355 31.6115C100.393 31.5632 100.393 31.5249 100.416 31.5005C100.362 31.4353 100.416 31.2895 100.416 31.1949C100.401 31.168 100.347 31.1757 100.332 31.2301C100.286 31.3871 100.224 31.5142 100.255 31.6766C100.342 31.8524 100.258 32.0283 100.06 32.077C100.006 32.0931 99.9023 32.077 99.93 32.1879C99.93 32.1906 99.8531 32.2255 99.8077 32.2255C99.55 32.2228 99.4254 32.2661 99.2946 32.3797C98.9308 32.3444 98.6869 32.6205 98.3638 32.6962C98.19 32.7369 98.0192 32.8721 97.9107 33.0074C97.6884 33.3456 97.8569 33.8191 97.7861 34.1979C97.7554 34.3684 97.5715 34.5577 97.5554 34.6903C97.5554 34.6903 97.5246 34.6931 97.5015 34.6958C97.4476 34.6985 97.303 34.7472 97.2546 34.682C97.3161 34.5629 97.1599 34.3519 97.1138 34.1705C97.0676 34.0001 97.0676 33.7728 97.1445 33.6104C97.1907 33.5157 97.1907 33.4941 97.0984 33.413C97.0753 33.3938 97.0599 33.3669 97.0522 33.3454C96.9907 33.1749 96.9276 33.1263 96.7399 33.2048C96.6507 33.2478 96.5745 33.2317 96.5122 33.1264C96.466 33.0504 96.3383 33.0019 96.2406 32.9586C96.1291 32.9156 95.9884 33.0261 95.8768 32.8801C95.8383 32.8318 95.5183 32.9231 95.4045 32.9346C95.3891 32.943 95.443 33.0401 95.3737 33.078C95.3583 33.0918 95.3275 33.0995 95.3352 33.124C95.3352 33.1325 95.3737 33.1969 95.3583 33.2133C95.3275 33.2402 95.3122 33.2402 95.3122 33.2402L95.2809 33.2405ZM116.696 29.7799C116.802 29.5743 116.562 29.4634 116.413 29.3687C116.367 29.3418 116.294 29.3579 116.207 29.3495C116.253 29.4147 116.269 29.4496 116.302 29.4902C116.263 29.5063 116.225 29.5201 116.19 29.5331C116.206 29.5814 116.213 29.6251 116.236 29.6955C116.133 29.6686 116.062 29.6471 115.989 29.6302L115.974 29.6602C116.077 29.7093 116.18 29.7602 116.297 29.8144C116.343 29.6899 116.411 29.6548 116.525 29.7791C116.548 29.809 116.685 29.8014 116.696 29.7799Z" fill="black"/>
<path fill-rule="evenodd" clip-rule="evenodd" d="M104.006 25.4453C104.052 25.6645 103.688 25.5454 103.544 25.5319C103.699 25.3614 103.862 25.4535 104.006 25.4453Z" fill="black"/>
<path d="M107.613 29.6608C107.277 29.7068 107.29 29.834 107.252 29.9206C107.369 29.9367 107.556 29.8991 107.662 29.9122L107.677 29.9497C107.654 29.9605 107.639 29.9712 107.582 29.9981C107.843 30.082 108.076 30.1523 108.317 30.2226C108.294 30.2932 108.198 30.385 108.177 30.4418C108.31 30.5178 108.418 30.4741 108.426 30.4963C108.441 30.5178 108.274 30.591 108.211 30.6343L108.227 30.6611C108.296 30.6396 108.449 30.5772 108.471 30.5906C108.533 30.6366 108.394 30.6527 108.363 30.7421C108.44 30.7314 108.512 30.7045 108.55 30.6961C108.565 30.7175 108.534 30.7367 108.573 30.7666C108.448 30.9966 108.461 30.9993 108.315 30.8857C108.3 30.8718 108.369 30.8236 108.31 30.7856C108.287 30.7718 108.271 30.8232 108.217 30.8454C108.179 30.8293 108.14 30.8208 108.093 30.8101C108.108 30.7641 108.212 30.7208 108.147 30.6532C107.94 30.6854 107.726 30.7046 107.539 30.6961C107.493 30.6854 107.508 30.6532 107.536 30.6448C107.648 30.6475 107.81 30.6179 107.802 30.6018C107.55 30.5259 107.339 30.4773 107.108 30.407C106.891 30.3364 106.522 30.3909 106.438 30.2446C106.361 30.1093 106.706 29.8551 107.072 29.6521C107.151 29.6038 107.368 29.5628 107.58 29.5547C107.603 29.5654 107.559 29.6392 107.613 29.6608Z" fill="black"/>
<path fill-rule="evenodd" clip-rule="evenodd" d="M118.232 32.6367C118.309 32.8423 118.433 32.9642 118.431 33.0832C118.26 32.9993 118.17 32.9046 118.173 32.791C118.176 32.7426 118.232 32.7449 118.232 32.6367Z" fill="black"/>
<path d="M104.799 30.0317C104.83 30.0209 104.876 29.9642 104.902 29.9424C105.008 30.1967 105.284 30.0993 105.472 30.2238C105.377 30.2453 105.293 30.2667 105.206 30.289C104.975 30.1889 104.954 30.1723 104.799 30.0317Z" fill="black"/>
<path d="M105.019 29.3631C105.244 29.3225 105.521 29.4471 105.727 29.6472L105.704 29.6955C105.392 29.6116 105.165 29.4632 105.019 29.3631Z" fill="black"/>
<path d="M112.725 30.5133C112.756 30.4213 112.741 30.324 112.71 30.2806C112.607 30.2185 112.618 30.2154 112.515 30.1534C112.52 30.1373 112.499 30.0669 112.499 30.0479C112.588 30.005 112.611 29.9751 112.67 29.9262C112.762 29.8099 112.631 29.799 112.654 29.7666C112.766 29.6259 112.918 29.542 113.061 29.5068C113.131 29.569 113.2 29.6313 113.289 29.7098C113.286 29.7152 113.266 29.7719 113.251 29.7991C113.343 29.8856 113.487 29.9857 113.535 30.2319C113.305 30.4348 113.104 30.6242 112.968 30.6973C112.899 30.7403 112.8 30.7379 112.751 30.7027C112.721 30.6758 112.695 30.6268 112.725 30.5133Z" fill="black"/>
<path d="M113.344 29.5773C113.329 29.5344 113.321 29.4961 113.306 29.4555C113.26 29.4693 113.244 29.4418 113.157 29.4717C113.203 29.3905 113.211 29.3878 113.238 29.3445L113.192 29.3691C113.154 29.3146 113.131 29.25 113.086 29.2094C113.024 29.1527 112.942 29.1175 112.894 29.0904C112.948 28.993 113.002 28.9064 113.059 28.8171C113.141 28.8171 113.252 28.8172 113.393 28.8145C113.271 29.0038 113.331 29.0498 113.521 29.0201C113.684 28.9955 113.784 29.0553 113.773 29.2311C113.768 29.2856 113.781 29.342 113.781 29.3583C114.15 29.6262 114.598 29.7587 114.834 30.1537C114.999 29.9995 115.262 30.1269 115.187 30.519C115.233 30.5351 115.279 30.5567 115.325 30.5789C115.322 30.5981 115.322 30.6164 115.322 30.6195C115.253 30.744 114.688 30.7223 114.454 30.8225C114.329 30.8739 114.408 30.671 114.039 30.8493C114.202 30.4921 114.277 30.5977 114.364 30.5219C114.242 30.4974 114.101 30.4651 113.916 30.4218C114.049 30.3489 114.163 30.1756 113.97 30.162C113.939 30.1593 113.939 30.0915 113.916 30.043H114.122C114.138 30.0292 114.146 30.0131 114.161 30.0055C114.069 29.8512 114.009 29.8025 113.868 29.6808C113.735 29.6753 113.488 29.8377 113.523 29.4914C113.446 29.5267 113.398 29.5475 113.344 29.5773L113.337 29.578L113.344 29.5773Z" fill="black"/>
<path d="M118.655 33.8544C118.609 33.592 118.451 33.508 118.368 33.3295C118.352 33.2973 118.421 33.2321 118.46 33.1699C118.636 33.3566 118.772 33.6001 118.791 33.7408C118.798 33.8248 118.745 33.7546 118.701 33.8734C118.686 33.868 118.655 33.8682 118.655 33.8544Z" fill="black"/>
<path d="M103.176 55.4269C103.176 55.3579 103.032 55.3962 102.934 55.4116C102.903 55.4143 103.016 55.473 102.646 55.7069C102.7 55.7069 102.959 55.7122 102.872 55.7529C102.576 55.9906 102.283 56.1478 101.963 56.3426C101.932 56.358 101.884 56.3657 101.86 56.358C101.702 56.2553 101.501 56.358 101.344 56.1471C101.283 56.0581 101.181 56.0704 101.141 56.0443C101.126 56.039 101.057 55.8817 101.033 55.8955C101.025 55.9032 100.951 55.9416 100.956 55.9646C100.963 55.9953 101.01 56.0512 101.01 56.0512C101.087 56.1348 101.208 56.2269 101.27 56.3082C101.278 56.3235 101.265 56.3917 101.224 56.4569C101.209 56.4876 101.209 56.5651 101.247 56.6356C101.263 56.674 101.34 56.6586 101.329 56.7277C101.306 56.868 101.033 57.0659 100.873 57.0574C100.669 57.0548 100.466 57.0345 100.265 57.0115C100.094 56.9884 99.9472 57.1142 99.9934 57.2845C100.024 57.3819 99.9879 57.4118 99.9164 57.4064C99.7318 57.3911 99.5633 57.3528 99.3979 57.2546C99.3749 57.5361 99.4006 57.5659 99.6341 57.6089C99.6726 57.6166 99.7034 57.6956 99.7534 57.7546C99.588 57.8083 99.3656 57.77 99.4118 57.9901C99.4272 58.0438 99.3887 58.109 99.3734 58.1657C99.2757 58.2041 99.0887 58.2041 99.0533 58.2685C99.0072 58.5009 99.2518 58.4687 99.4195 58.5799C99.4272 58.6489 99.4272 58.7149 99.4118 58.7425C99.358 58.8038 99.2218 58.8966 99.1564 58.9457C99.1618 59.0239 99.1718 59.0838 99.141 59.116C99.0948 59.1237 99.0241 59.1544 98.9756 59.162C99.0064 59.3162 99.1087 59.4166 99.1464 59.4788C99.1409 59.5094 99.0241 59.4481 98.9479 59.4404L99.1925 59.6C99.3333 59.6813 99.2741 59.7081 99.4072 59.83C99.5318 59.9412 99.5941 59.9627 99.5888 59.9765C99.5811 59.9995 99.6118 60.1169 99.2303 59.9919C98.7772 59.8454 98.6602 59.7886 98.1284 59.2747C98.1284 59.2747 97.8438 59.0201 97.6507 58.4847C97.6354 58.4464 97.5892 58.398 97.6122 58.3658C97.6276 58.3428 97.6584 58.3352 97.7184 58.3428C97.713 58.2891 97.7239 58.2047 97.6953 58.1833C97.6492 58.1449 97.4915 58.2293 97.4838 58.1219C97.5453 57.9624 97.573 57.9977 97.6007 57.8435C97.6084 57.7975 97.5545 57.7431 97.5545 57.5191C97.5545 57.4808 97.6161 57.4654 97.6438 57.4884C97.69 57.5858 97.7276 57.7208 97.7961 57.7829C97.7192 57.3174 97.7807 57.4532 97.7345 57.1119C97.6807 57.0428 97.6576 57.0811 97.6399 57.0811V57.414C97.5045 57.3987 97.4553 57.3527 97.4853 57.1464C97.4908 57.1157 97.5391 57.1387 97.488 57.0405C97.4418 56.9569 97.4572 56.8265 97.4572 56.7567C97.5472 56.5159 97.4649 56.2943 97.3649 56.0887C97.2318 55.8341 97.3676 55.9131 97.3957 55.8072C97.5311 55.3632 97.7434 54.9279 97.618 54.4328C97.5796 54.2924 97.5042 54.1299 97.6411 53.9864C97.6565 53.9711 97.6488 53.9251 97.6411 53.8974C97.5596 53.6597 97.6719 53.4511 97.7226 53.2294C97.7534 53.0807 97.7688 52.9265 97.7842 52.7746C97.815 52.5253 97.8457 52.2715 97.8226 52.0222C97.828 51.8466 97.8172 51.7622 97.838 51.6295C97.8534 51.513 97.9442 51.4026 97.9496 51.2829C97.955 51.0122 97.9342 50.7414 97.9188 50.4712C97.9161 50.4252 97.9034 50.3654 97.8726 50.3309C97.5388 49.9305 97.2049 49.5354 96.7518 49.2702C96.4264 49.0785 96.2772 48.7479 96.1003 48.353C96.0695 48.2917 96.0387 48.2042 95.9972 48.1122C98.7408 48.0256 101.479 47.9769 104.212 47.9796C106.266 47.9796 108.66 47.9934 110.717 48.0417C110.701 48.3231 110.686 48.6478 110.686 48.7019C110.655 49.0915 110.588 49.113 110.418 49.4703C110.271 49.7541 110.027 49.8814 109.812 50.044C109.478 50.2987 109.087 50.4712 108.784 50.7665C108.675 50.8532 108.577 50.9881 108.455 51.0234C107.942 51.1561 108.018 51.64 107.831 52.0082C107.657 52.4009 107.432 52.5735 107.197 52.9743C107.093 53.1146 106.898 53.2013 106.751 53.3071C106.648 53.5587 106.415 53.6507 106.211 53.7834C106.024 53.8371 105.818 53.7144 105.625 53.6937C105.443 53.663 105.218 53.7911 105.153 53.9238C104.786 53.8624 104.561 54.0234 104.252 54.1646C104.015 54.2643 103.959 54.4759 103.964 54.6869C103.969 54.8495 103.902 54.9415 103.788 55.0037C103.546 55.1363 103.372 55.3281 103.18 55.526C103.099 55.6096 103.033 55.6179 103.022 55.6179C103.02 55.6206 102.956 55.6263 103.176 55.4269Z" fill="black"/>
<path d="M132.431 47.648C132.203 47.0501 131.972 46.4575 131.741 45.865C130.477 45.7621 129.209 45.6675 127.945 45.5782L127.252 47.2584C126.485 47.207 125.716 47.1555 124.948 47.1123C126.259 44.1415 127.567 41.1733 128.878 38.2188C129.198 38.2433 129.521 38.2648 129.841 38.2893C130.164 38.3139 130.484 38.3353 130.807 38.3622C132.115 41.517 133.423 44.6799 134.732 47.8455C133.966 47.775 133.199 47.7129 132.431 47.648ZM128.707 43.7248C129.464 43.7816 130.221 43.8385 130.979 43.898C130.599 42.9212 130.222 41.9472 129.841 40.9705C129.465 41.8904 129.085 42.8076 128.707 43.7248Z" fill="black"/>
<path d="M93.6666 46.669C92.4074 43.6549 91.1481 40.6544 89.8889 37.6565C90.6922 37.6212 91.4982 37.589 92.3015 37.5591C93.0285 39.4477 93.7561 41.3362 94.4834 43.2248C95.2111 41.2929 95.938 39.361 96.6653 37.4319C97.4713 37.4127 98.2746 37.3966 99.0806 37.3828C97.8187 40.4537 96.5595 43.5328 95.3003 46.6199C95.0287 46.6284 94.7549 46.6337 94.4834 46.6414C94.2118 46.6499 93.9411 46.6614 93.6666 46.669Z" fill="black"/>
<path d="M69.6739 44.6309C69.6739 45.935 70.1624 46.5465 71.3049 46.4302C72.4501 46.3165 72.9386 45.613 72.9386 44.3089V38.8138C73.6633 38.7432 74.3904 38.6784 75.1151 38.6162V44.1466C75.1151 46.69 73.8423 48.1402 71.3049 48.3891C68.7702 48.6407 67.5001 47.4421 67.5001 44.8988V39.3684C68.2248 39.29 68.9493 39.2115 69.6739 39.1384" fill="black"/>
<path d="M121.407 41.1594C122.823 41.7412 124.761 42.45 124.761 44.3359C124.761 46.265 123.38 47.2823 120.964 47.1633C119.54 47.0927 118.05 46.246 117.626 45.9917C117.611 45.9833 117.596 45.9756 117.58 45.9649V43.8003C117.626 43.8272 117.667 43.8517 117.71 43.8842C119.01 44.7041 120.085 45.1667 120.961 45.275C122.006 45.4076 122.492 45.0964 122.492 44.4714C122.492 44.2116 122.275 43.9546 121.805 43.7246C121.537 43.5893 121.213 43.4567 120.872 43.316C119.352 42.7018 117.463 42.1012 117.463 40.0043C117.463 38.151 119.102 37.3879 120.728 37.4664C121.971 37.5232 123.452 38.1482 124.147 38.5514C124.162 38.5598 124.178 38.5706 124.193 38.5782V40.7427C124.147 40.7159 124.106 40.6883 124.063 40.6588C123.635 40.3856 122.126 39.4819 120.728 39.4169C120.025 39.3847 119.721 39.6388 119.721 39.9661C119.721 40.1988 119.947 40.4748 120.41 40.7156C120.684 40.8617 121.037 41.0052 121.407 41.1594Z" fill="black"/>
<path d="M114.495 43.1052C115.217 44.3066 115.936 45.5079 116.658 46.7119C115.844 46.682 115.027 46.6551 114.213 46.6334C113.575 45.5268 112.938 44.4229 112.297 43.3244C111.8 43.3137 111.304 43.3029 110.807 43.2945V46.5494C110.093 46.5356 109.38 46.5279 108.666 46.5195V37.3662C110.305 37.3823 111.944 37.4176 113.584 37.4609C115.291 37.507 116.262 38.6704 116.262 40.421C116.262 42.1309 115.323 42.8238 114.495 43.1052ZM110.796 41.3844C111.464 41.4006 112.134 41.4144 112.802 41.4274C113.803 41.4542 114.004 40.8971 114.004 40.4263C114.004 39.9555 113.8 39.3846 112.802 39.3603C112.134 39.3411 111.464 39.3281 110.796 39.3143" fill="black"/>
<path d="M86.8193 46.958C86.8139 43.906 86.8116 40.8567 86.8116 37.8047C87.5332 37.7641 88.2581 37.7288 88.98 37.6992V46.8497C88.2607 46.885 87.5384 46.9203 86.8193 46.958Z" fill="black"/>
<path d="M102.12 42.8162V44.5695C103.762 44.5557 105.401 44.5557 107.043 44.5695V46.5013C104.695 46.4852 102.348 46.4929 100.003 46.5228C99.9975 43.4708 99.9952 40.4216 99.9952 37.3696C102.326 37.3397 104.66 37.332 106.991 37.3481V39.2691C105.369 39.2584 103.746 39.2584 102.123 39.2691V40.8871C103.225 40.8787 104.326 40.8763 105.428 40.8786V42.8132C104.326 42.8105 103.222 42.8135 102.12 42.8162Z" fill="black"/>
<path d="M82.8516 38.0314C83.5708 37.9885 84.2899 37.9449 85.009 37.9043V47.0576C84.4205 47.0898 83.8339 47.125 83.245 47.1631L83.222 47.1278C81.838 45.3799 80.4539 43.6402 79.0726 41.9059V47.4525C78.3534 47.5069 77.6343 47.5634 76.9152 47.6202V38.467C77.6129 38.4125 78.3101 38.3561 79.0075 38.3046L79.0305 38.3346C80.3034 39.9255 81.5761 41.5272 82.8516 43.1317" fill="black"/>
<path d="M135.644 38.7764C136.363 38.8416 137.079 38.9117 137.798 38.982V46.2169C139.033 46.3387 140.268 46.4658 141.5 46.6039V48.5222C139.554 48.3082 137.606 48.1082 135.654 47.9296C135.652 44.8803 135.644 41.8283 135.644 38.7764Z" fill="black"/>
</g>
<defs>
<clipPath id="clip0_182_1553">
<rect width="74" height="39" fill="white" transform="translate(67.5 24)"/>
</clipPath>
</defs>
</svg>
