<svg width="209" height="87" viewBox="0 0 209 87" fill="none" xmlns="http://www.w3.org/2000/svg">
<rect width="209" height="87" fill="white"/>
<g clip-path="url(#clip0_283_2646)">
<path d="M53.4832 59.4256C46.6668 58.3446 41.3913 53.348 39.9924 46.6478C39.7182 45.3344 39.6272 42.9034 39.8021 41.5606C40.7435 34.3327 46.1235 28.8058 53.3772 27.6152C54.7841 27.3843 57.5967 27.4488 58.9401 27.7428C64.686 29.0004 69.1776 33.0062 70.9918 38.4913C71.5416 40.1536 71.7894 41.709 71.7894 43.4986C71.7894 51.0384 66.6255 57.4755 59.1926 59.2012C58.0175 59.474 54.6285 59.6072 53.4832 59.4256ZM55.149 52.1286C54.3089 51.1486 53.0213 49.1009 52.6276 48.1187C52.2698 47.2259 52.2321 47.0116 52.2301 45.8605C52.2282 44.7111 52.2617 44.5157 52.5783 43.8303C53.2009 42.482 54.3342 41.7278 55.7496 41.7196C57.8204 41.7077 59.3434 43.4865 59.3339 45.9059C59.3277 47.4916 58.4993 49.3459 56.8538 51.4578L55.9026 52.6786L56.8214 52.5953C59.4889 52.3536 61.9902 51.1638 63.8859 49.2348C64.9037 48.1991 65.4212 47.4621 66.0424 46.1633C66.861 44.4521 67.1087 43.3315 67.1133 41.3184C67.1164 39.9632 67.0635 39.4086 66.8499 38.5566C65.4698 33.0512 60.157 29.3427 54.5615 29.979C49.8402 30.5159 45.9055 33.9565 44.7524 38.5566C44.3688 40.0866 44.3736 42.5887 44.7628 44.0437C45.9334 48.4194 49.4179 51.672 53.7834 52.4642C54.2603 52.5507 54.8619 52.6265 55.1203 52.6325L55.5902 52.6434L55.149 52.1286ZM119.088 52.9435C117.921 52.7286 116.498 52.2505 115.765 51.8269C114.011 50.8143 112.869 48.9115 112.474 46.345C112.298 45.199 112.407 42.6822 112.678 41.6212C113.158 39.7446 114.145 38.2736 115.575 37.3029C117.004 36.3335 119.974 35.7844 122.431 36.0355C124.944 36.2921 126.459 36.9104 127.735 38.1994C128.686 39.1605 129.196 40.1215 129.587 41.6912C129.948 43.1391 129.976 46.1948 129.639 47.4957C128.904 50.335 127.216 52.0414 124.417 52.7748C123.13 53.1121 120.462 53.1966 119.088 52.9435ZM123.2 49.8742C124.11 49.4697 124.516 49.1031 124.945 48.2967C125.468 47.3156 125.685 46.2114 125.685 44.5281C125.685 40.608 124.306 38.8989 121.147 38.9037C119.689 38.906 118.864 39.1637 118.092 39.8582C117.052 40.793 116.607 42.1927 116.607 44.5281C116.607 47.7633 117.615 49.5661 119.722 50.0966C120.537 50.3018 122.523 50.1748 123.2 49.8742ZM83.9172 52.509C83.8553 52.3498 82.2731 48.7631 80.4012 44.5386C78.5293 40.3141 76.9977 36.8122 76.9977 36.7565C76.9977 36.7007 77.6977 36.6551 78.5532 36.6551C79.9472 36.6551 80.1643 36.6844 80.6426 36.9366C80.9386 37.0927 81.3153 37.43 81.4881 37.6936C81.6595 37.9552 82.6895 40.2676 83.777 42.8324C84.8645 45.3972 85.7927 47.5699 85.8396 47.6606C85.8905 47.7588 86.7223 45.8331 87.8939 42.9051C88.9768 40.1988 89.9796 37.8121 90.1223 37.6014C90.265 37.3907 90.622 37.0915 90.9156 36.9367C91.4018 36.6802 91.6031 36.6551 93.1726 36.6551H94.8958L91.5695 44.0134C89.74 48.0604 88.108 51.5493 87.9428 51.7664C87.434 52.4351 86.8112 52.6667 85.3325 52.7368C84.0455 52.7978 84.0284 52.795 83.9172 52.509ZM101.041 52.5017C98.7693 52.0717 96.8509 50.0656 96.1143 47.3504C95.7359 45.9555 95.7375 43.275 96.1174 41.9309C96.705 39.8524 97.9034 38.1922 99.3866 37.4017C100.76 36.6699 101.219 36.6113 105.643 36.6025L109.64 36.5946V38.0481V39.5016L106.185 39.5621L102.73 39.6227L101.933 40.0155C101.376 40.2898 101.033 40.5557 100.797 40.8966C100.463 41.3788 100.132 42.3839 100.132 42.9179V43.1929L104.705 43.2246L109.277 43.2564V44.6493V46.0422L104.705 46.0739L100.132 46.1057V46.3688C100.132 46.5135 100.221 46.9496 100.33 47.3379C100.599 48.2958 101.255 49.0302 102.165 49.3912C102.816 49.6494 103.064 49.6687 106.279 49.7111L109.701 49.7562V51.1998V52.6434L105.674 52.6299C103.458 52.6224 101.374 52.5647 101.041 52.5017ZM136.753 52.403C136.277 52.278 135.656 52.058 135.374 51.9141C134.645 51.5422 133.719 50.5699 133.372 49.8128C132.826 48.6195 132.785 48.0861 132.78 42.1663L132.775 36.5946H134.047C135.146 36.5946 135.376 36.6306 135.743 36.8602C136.553 37.368 136.524 37.1622 136.59 42.8324L136.651 47.9802L136.954 48.5187C137.172 48.9061 137.426 49.1441 137.858 49.3666C138.447 49.6693 138.523 49.6768 141.401 49.7156L144.342 49.7554V51.1994V52.6434L140.981 52.6367C138.098 52.631 137.497 52.5978 136.753 52.403ZM146.67 45.1641C146.702 38.0488 146.715 37.6682 146.934 37.3454C147.318 36.7795 147.79 36.612 149.157 36.5567L150.398 36.5066V43.9754C150.398 52.2176 150.425 51.9247 149.635 52.4061C149.314 52.6019 149.023 52.6426 147.942 52.643L146.636 52.6434L146.67 45.1641ZM152.399 52.5009C152.433 52.4128 153.87 49.0975 155.592 45.1338C159.099 37.0628 159.126 37.0143 160.327 36.7048C161.17 36.4873 163.281 36.4743 163.45 36.6854C163.546 36.8047 170.016 51.6187 170.331 52.438C170.402 52.6247 170.265 52.6434 168.818 52.6434C166.461 52.6434 166.086 52.4058 165.166 50.3245L164.611 49.0703L161.378 49.038L158.146 49.0058L158.022 49.3321C157.953 49.5117 157.659 50.1565 157.366 50.7651C156.942 51.6487 156.732 51.9432 156.323 52.2272C155.822 52.5743 155.768 52.5838 154.074 52.6221C152.671 52.6537 152.349 52.6305 152.399 52.5009ZM163.685 45.9514C162.76 43.7334 161.493 40.81 161.424 40.7357C161.351 40.6565 160.459 42.6154 159.16 45.7091L158.995 46.1028H161.371C163.225 46.1028 163.734 46.0695 163.685 45.9514Z" fill="#ED1C24"/>
</g>
<defs>
<clipPath id="clip0_283_2646">
<rect width="132" height="33" fill="white" transform="translate(39 27)"/>
</clipPath>
</defs>
</svg>
